<svg xmlns="http://www.w3.org/2000/svg" xmlns:xlink="http://www.w3.org/1999/xlink" width="334pt" height="314pt" viewBox="0 0 333.78 314"><g id="graph0" class="graph" transform="scale(1 1) rotate(0) translate(4 310)"><title>%3</title><polygon fill="#fff" stroke="transparent" points="-4 4 -4 -310 329.775 -310 329.775 4 -4 4"/><g id="clust1" class="cluster"><title>cluster_sshportal</title><polygon fill="none" stroke="#000" points="106.453 -8 106.453 -298 219.304 -298 219.304 -8 106.453 -8"/><text x="162.879" y="-282.8" fill="#000" font-family="Times,serif" font-size="14" text-anchor="middle">sshportal cluster</text></g><g id="clust2" class="cluster"><title>cluster_hosts</title><polygon fill="none" stroke="#000" points="239.304 -62 239.304 -298 317.775 -298 317.775 -62 239.304 -62"/><text x="278.54" y="-282.8" fill="#000" font-family="Times,serif" font-size="14" text-anchor="middle">hosts</text></g><g id="clust3" class="cluster"><title>cluster_users</title><polygon fill="none" stroke="#000" points="8 -62 8 -298 86.453 -298 86.453 -62 8 -62"/><text x="47.227" y="-282.8" fill="#000" font-family="Times,serif" font-size="14" text-anchor="middle">users</text></g><g id="node1" class="node"><title>sshportal1</title><ellipse cx="162.879" cy="-250" fill="none" stroke="#000" rx="46.422" ry="18"/><text x="162.879" y="-245.8" fill="#000" font-family="Times,serif" font-size="14" text-anchor="middle">sshportal1</text></g><g id="node5" class="node"><title>MySQL</title><ellipse cx="162.879" cy="-34" fill="none" stroke="#000" rx="39.197" ry="18"/><text x="162.879" y="-29.8" fill="#000" font-family="Times,serif" font-size="14" text-anchor="middle">MySQL</text></g><g id="edge1" class="edge"><title>sshportal1--MySQL</title><path fill="none" stroke="silver" stroke-dasharray="5 2" d="M124.8869,-239.5365C113.0929,-234.0967 101.7898,-225.9823 96.4533,-214 83.4344,-184.768 83.4344,-99.232 96.4533,-70 102.3234,-56.8194 115.4132,-48.3192 128.4343,-42.9106"/></g><g id="node6" class="node"><title>host1</title><ellipse cx="278.54" cy="-250" fill="none" stroke="#000" rx="29.043" ry="18"/><text x="278.54" y="-245.8" fill="#000" font-family="Times,serif" font-size="14" text-anchor="middle">host1</text></g><g id="edge6" class="edge"><title>sshportal1--host1</title><path fill="none" stroke="red" stroke-width="3" d="M209.5892,-250C222.8807,-250 236.9866,-250 248.9537,-250"/></g><g id="node2" class="node"><title>sshportal2</title><ellipse cx="162.879" cy="-196" fill="none" stroke="#000" rx="46.422" ry="18"/><text x="162.879" y="-191.8" fill="#000" font-family="Times,serif" font-size="14" text-anchor="middle">sshportal2</text></g><g id="edge2" class="edge"><title>sshportal2--MySQL</title><path fill="none" stroke="silver" stroke-dasharray="5 2" d="M124.8869,-185.5365C113.0929,-180.0967 101.7898,-171.9823 96.4533,-160 88.3165,-141.73 88.3165,-88.27 96.4533,-70 102.3234,-56.8194 115.4132,-48.3192 128.4343,-42.9106"/></g><g id="edge12" class="edge"><title>sshportal2--host1</title><path fill="none" stroke="#a020f0" stroke-width="3" d="M192.6645,-209.9063C212.0749,-218.9687 237.0472,-230.6278 255.0535,-239.0347"/></g><g id="node7" class="node"><title>host2</title><ellipse cx="278.54" cy="-196" fill="none" stroke="#000" rx="29.043" ry="18"/><text x="278.54" y="-191.8" fill="#000" font-family="Times,serif" font-size="14" text-anchor="middle">host2</text></g><g id="edge8" class="edge"><title>sshportal2--host2</title><path fill="none" stroke="#0f0" stroke-width="3" d="M209.5892,-196C222.8807,-196 236.9866,-196 248.9537,-196"/></g><g id="node3" class="node"><title>sshportal3</title><ellipse cx="162.879" cy="-142" fill="none" stroke="#000" rx="46.422" ry="18"/><text x="162.879" y="-137.8" fill="#000" font-family="Times,serif" font-size="14" text-anchor="middle">sshportal3</text></g><g id="edge3" class="edge"><title>sshportal3--MySQL</title><path fill="none" stroke="silver" stroke-dasharray="5 2" d="M124.8869,-131.5365C113.0929,-126.0967 101.7898,-117.9823 96.4533,-106 89.9439,-91.384 89.9439,-84.616 96.4533,-70 102.3234,-56.8194 115.4132,-48.3192 128.4343,-42.9106"/></g><g id="node8" class="node"><title>host3</title><ellipse cx="278.54" cy="-142" fill="none" stroke="#000" rx="29.043" ry="18"/><text x="278.54" y="-137.8" fill="#000" font-family="Times,serif" font-size="14" text-anchor="middle">host3</text></g><g id="edge10" class="edge"><title>sshportal3--host3</title><path fill="none" stroke="#00f" stroke-width="3" d="M209.5892,-142C222.8807,-142 236.9866,-142 248.9537,-142"/></g><g id="node4" class="node"><title>sshportalN</title><ellipse cx="162.879" cy="-88" fill="none" stroke="#000" rx="48.351" ry="18"/><text x="162.879" y="-83.8" fill="#000" font-family="Times,serif" font-size="14" text-anchor="middle">sshportalN</text></g><g id="edge4" class="edge"><title>sshportalN--MySQL</title><path fill="none" stroke="silver" stroke-dasharray="5 2" d="M162.8789,-69.7902C162.8789,-63.907 162.8789,-58.0238 162.8789,-52.1406"/></g><g id="node9" class="node"><title>hostN</title><ellipse cx="278.54" cy="-88" fill="none" stroke="#000" rx="31.472" ry="18"/><text x="278.54" y="-83.8" fill="#000" font-family="Times,serif" font-size="14" text-anchor="middle">hostN</text></g><g id="edge14" class="edge"><title>sshportalN--hostN</title><path fill="none" stroke="#000" stroke-dasharray="1 5" d="M211.5943,-88C223.5713,-88 236.0833,-88 247.0054,-88"/></g><g id="node10" class="node"><title>user1</title><ellipse cx="47.227" cy="-250" fill="none" stroke="#000" rx="29.026" ry="18"/><text x="47.227" y="-245.8" fill="#000" font-family="Times,serif" font-size="14" text-anchor="middle">user1</text></g><g id="edge5" class="edge"><title>user1--sshportal1</title><path fill="none" stroke="red" stroke-width="3" d="M76.7098,-250C88.7561,-250 102.9825,-250 116.3672,-250"/></g><g id="node11" class="node"><title>user2</title><ellipse cx="47.227" cy="-196" fill="none" stroke="#000" rx="29.026" ry="18"/><text x="47.227" y="-191.8" fill="#000" font-family="Times,serif" font-size="14" text-anchor="middle">user2</text></g><g id="edge7" class="edge"><title>user2--sshportal2</title><path fill="none" stroke="#0f0" stroke-width="3" d="M76.7098,-196C88.7561,-196 102.9825,-196 116.3672,-196"/></g><g id="node12" class="node"><title>user3</title><ellipse cx="47.227" cy="-142" fill="none" stroke="#000" rx="29.026" ry="18"/><text x="47.227" y="-137.8" fill="#000" font-family="Times,serif" font-size="14" text-anchor="middle">user3</text></g><g id="edge11" class="edge"><title>user3--sshportal2</title><path fill="none" stroke="#a020f0" stroke-width="3" d="M70.6306,-152.9277C88.5836,-161.3103 113.4965,-172.9425 132.9075,-182.0059"/></g><g id="edge9" class="edge"><title>user3--sshportal3</title><path fill="none" stroke="#00f" stroke-width="3" d="M76.7098,-142C88.7561,-142 102.9825,-142 116.3672,-142"/></g><g id="node13" class="node"><title>userN</title><ellipse cx="47.227" cy="-88" fill="none" stroke="#000" rx="31.455" ry="18"/><text x="47.227" y="-83.8" fill="#000" font-family="Times,serif" font-size="14" text-anchor="middle">userN</text></g><g id="edge13" class="edge"><title>userN--sshportalN</title><path fill="none" stroke="#000" stroke-dasharray="1 5" d="M78.5238,-88C89.4948,-88 102.0923,-88 114.1488,-88"/></g></g></svg>