<?xml version="1.0" encoding="UTF-8" standalone="no"?>
<!DOCTYPE svg PUBLIC "-//W3C//DTD SVG 1.1//EN"
 "http://www.w3.org/Graphics/SVG/1.1/DTD/svg11.dtd">
<!-- Generated by graphviz version 2.40.1 (20161225.0304)
 -->
<!-- Title: %3 Pages: 1 -->
<svg width="334pt" height="314pt"
 viewBox="0.00 0.00 333.78 314.00" xmlns="http://www.w3.org/2000/svg" xmlns:xlink="http://www.w3.org/1999/xlink">
<g id="graph0" class="graph" transform="scale(1 1) rotate(0) translate(4 310)">
<title>%3</title>
<polygon fill="#ffffff" stroke="transparent" points="-4,4 -4,-310 329.7751,-310 329.7751,4 -4,4"/>
<g id="clust1" class="cluster">
<title>cluster_sshportal</title>
<polygon fill="none" stroke="#000000" points="106.4533,-8 106.4533,-298 219.3045,-298 219.3045,-8 106.4533,-8"/>
<text text-anchor="middle" x="162.8789" y="-282.8" font-family="Times,serif" font-size="14.00" fill="#000000">sshportal cluster</text>
</g>
<g id="clust2" class="cluster">
<title>cluster_hosts</title>
<polygon fill="none" stroke="#000000" points="239.3045,-62 239.3045,-298 317.7751,-298 317.7751,-62 239.3045,-62"/>
<text text-anchor="middle" x="278.5398" y="-282.8" font-family="Times,serif" font-size="14.00" fill="#000000">hosts</text>
</g>
<g id="clust3" class="cluster">
<title>cluster_users</title>
<polygon fill="none" stroke="#000000" points="8,-62 8,-298 86.4533,-298 86.4533,-62 8,-62"/>
<text text-anchor="middle" x="47.2266" y="-282.8" font-family="Times,serif" font-size="14.00" fill="#000000">users</text>
</g>
<!-- sshportal1 -->
<g id="node1" class="node">
<title>sshportal1</title>
<ellipse fill="none" stroke="#000000" cx="162.8789" cy="-250" rx="46.4218" ry="18"/>
<text text-anchor="middle" x="162.8789" y="-245.8" font-family="Times,serif" font-size="14.00" fill="#000000">sshportal1</text>
</g>
<!-- MySQL -->
<g id="node5" class="node">
<title>MySQL</title>
<ellipse fill="none" stroke="#000000" cx="162.8789" cy="-34" rx="39.1973" ry="18"/>
<text text-anchor="middle" x="162.8789" y="-29.8" font-family="Times,serif" font-size="14.00" fill="#000000">MySQL</text>
</g>
<!-- sshportal1&#45;&#45;MySQL -->
<g id="edge1" class="edge">
<title>sshportal1&#45;&#45;MySQL</title>
<path fill="none" stroke="#c0c0c0" stroke-dasharray="5,2" d="M124.8869,-239.5365C113.0929,-234.0967 101.7898,-225.9823 96.4533,-214 83.4344,-184.768 83.4344,-99.232 96.4533,-70 102.3234,-56.8194 115.4132,-48.3192 128.4343,-42.9106"/>
</g>
<!-- host1 -->
<g id="node6" class="node">
<title>host1</title>
<ellipse fill="none" stroke="#000000" cx="278.5398" cy="-250" rx="29.0429" ry="18"/>
<text text-anchor="middle" x="278.5398" y="-245.8" font-family="Times,serif" font-size="14.00" fill="#000000">host1</text>
</g>
<!-- sshportal1&#45;&#45;host1 -->
<g id="edge6" class="edge">
<title>sshportal1&#45;&#45;host1</title>
<path fill="none" stroke="#ff0000" stroke-width="3" d="M209.5892,-250C222.8807,-250 236.9866,-250 248.9537,-250"/>
</g>
<!-- sshportal2 -->
<g id="node2" class="node">
<title>sshportal2</title>
<ellipse fill="none" stroke="#000000" cx="162.8789" cy="-196" rx="46.4218" ry="18"/>
<text text-anchor="middle" x="162.8789" y="-191.8" font-family="Times,serif" font-size="14.00" fill="#000000">sshportal2</text>
</g>
<!-- sshportal2&#45;&#45;MySQL -->
<g id="edge2" class="edge">
<title>sshportal2&#45;&#45;MySQL</title>
<path fill="none" stroke="#c0c0c0" stroke-dasharray="5,2" d="M124.8869,-185.5365C113.0929,-180.0967 101.7898,-171.9823 96.4533,-160 88.3165,-141.73 88.3165,-88.27 96.4533,-70 102.3234,-56.8194 115.4132,-48.3192 128.4343,-42.9106"/>
</g>
<!-- sshportal2&#45;&#45;host1 -->
<g id="edge12" class="edge">
<title>sshportal2&#45;&#45;host1</title>
<path fill="none" stroke="#a020f0" stroke-width="3" d="M192.6645,-209.9063C212.0749,-218.9687 237.0472,-230.6278 255.0535,-239.0347"/>
</g>
<!-- host2 -->
<g id="node7" class="node">
<title>host2</title>
<ellipse fill="none" stroke="#000000" cx="278.5398" cy="-196" rx="29.0429" ry="18"/>
<text text-anchor="middle" x="278.5398" y="-191.8" font-family="Times,serif" font-size="14.00" fill="#000000">host2</text>
</g>
<!-- sshportal2&#45;&#45;host2 -->
<g id="edge8" class="edge">
<title>sshportal2&#45;&#45;host2</title>
<path fill="none" stroke="#00ff00" stroke-width="3" d="M209.5892,-196C222.8807,-196 236.9866,-196 248.9537,-196"/>
</g>
<!-- sshportal3 -->
<g id="node3" class="node">
<title>sshportal3</title>
<ellipse fill="none" stroke="#000000" cx="162.8789" cy="-142" rx="46.4218" ry="18"/>
<text text-anchor="middle" x="162.8789" y="-137.8" font-family="Times,serif" font-size="14.00" fill="#000000">sshportal3</text>
</g>
<!-- sshportal3&#45;&#45;MySQL -->
<g id="edge3" class="edge">
<title>sshportal3&#45;&#45;MySQL</title>
<path fill="none" stroke="#c0c0c0" stroke-dasharray="5,2" d="M124.8869,-131.5365C113.0929,-126.0967 101.7898,-117.9823 96.4533,-106 89.9439,-91.384 89.9439,-84.616 96.4533,-70 102.3234,-56.8194 115.4132,-48.3192 128.4343,-42.9106"/>
</g>
<!-- host3 -->
<g id="node8" class="node">
<title>host3</title>
<ellipse fill="none" stroke="#000000" cx="278.5398" cy="-142" rx="29.0429" ry="18"/>
<text text-anchor="middle" x="278.5398" y="-137.8" font-family="Times,serif" font-size="14.00" fill="#000000">host3</text>
</g>
<!-- sshportal3&#45;&#45;host3 -->
<g id="edge10" class="edge">
<title>sshportal3&#45;&#45;host3</title>
<path fill="none" stroke="#0000ff" stroke-width="3" d="M209.5892,-142C222.8807,-142 236.9866,-142 248.9537,-142"/>
</g>
<!-- sshportalN -->
<g id="node4" class="node">
<title>sshportalN</title>
<ellipse fill="none" stroke="#000000" cx="162.8789" cy="-88" rx="48.3514" ry="18"/>
<text text-anchor="middle" x="162.8789" y="-83.8" font-family="Times,serif" font-size="14.00" fill="#000000">sshportalN</text>
</g>
<!-- sshportalN&#45;&#45;MySQL -->
<g id="edge4" class="edge">
<title>sshportalN&#45;&#45;MySQL</title>
<path fill="none" stroke="#c0c0c0" stroke-dasharray="5,2" d="M162.8789,-69.7902C162.8789,-63.907 162.8789,-58.0238 162.8789,-52.1406"/>
</g>
<!-- hostN -->
<g id="node9" class="node">
<title>hostN</title>
<ellipse fill="none" stroke="#000000" cx="278.5398" cy="-88" rx="31.4723" ry="18"/>
<text text-anchor="middle" x="278.5398" y="-83.8" font-family="Times,serif" font-size="14.00" fill="#000000">hostN</text>
</g>
<!-- sshportalN&#45;&#45;hostN -->
<g id="edge14" class="edge">
<title>sshportalN&#45;&#45;hostN</title>
<path fill="none" stroke="#000000" stroke-dasharray="1,5" d="M211.5943,-88C223.5713,-88 236.0833,-88 247.0054,-88"/>
</g>
<!-- user1 -->
<g id="node10" class="node">
<title>user1</title>
<ellipse fill="none" stroke="#000000" cx="47.2266" cy="-250" rx="29.0257" ry="18"/>
<text text-anchor="middle" x="47.2266" y="-245.8" font-family="Times,serif" font-size="14.00" fill="#000000">user1</text>
</g>
<!-- user1&#45;&#45;sshportal1 -->
<g id="edge5" class="edge">
<title>user1&#45;&#45;sshportal1</title>
<path fill="none" stroke="#ff0000" stroke-width="3" d="M76.7098,-250C88.7561,-250 102.9825,-250 116.3672,-250"/>
</g>
<!-- user2 -->
<g id="node11" class="node">
<title>user2</title>
<ellipse fill="none" stroke="#000000" cx="47.2266" cy="-196" rx="29.0257" ry="18"/>
<text text-anchor="middle" x="47.2266" y="-191.8" font-family="Times,serif" font-size="14.00" fill="#000000">user2</text>
</g>
<!-- user2&#45;&#45;sshportal2 -->
<g id="edge7" class="edge">
<title>user2&#45;&#45;sshportal2</title>
<path fill="none" stroke="#00ff00" stroke-width="3" d="M76.7098,-196C88.7561,-196 102.9825,-196 116.3672,-196"/>
</g>
<!-- user3 -->
<g id="node12" class="node">
<title>user3</title>
<ellipse fill="none" stroke="#000000" cx="47.2266" cy="-142" rx="29.0257" ry="18"/>
<text text-anchor="middle" x="47.2266" y="-137.8" font-family="Times,serif" font-size="14.00" fill="#000000">user3</text>
</g>
<!-- user3&#45;&#45;sshportal2 -->
<g id="edge11" class="edge">
<title>user3&#45;&#45;sshportal2</title>
<path fill="none" stroke="#a020f0" stroke-width="3" d="M70.6306,-152.9277C88.5836,-161.3103 113.4965,-172.9425 132.9075,-182.0059"/>
</g>
<!-- user3&#45;&#45;sshportal3 -->
<g id="edge9" class="edge">
<title>user3&#45;&#45;sshportal3</title>
<path fill="none" stroke="#0000ff" stroke-width="3" d="M76.7098,-142C88.7561,-142 102.9825,-142 116.3672,-142"/>
</g>
<!-- userN -->
<g id="node13" class="node">
<title>userN</title>
<ellipse fill="none" stroke="#000000" cx="47.2266" cy="-88" rx="31.4549" ry="18"/>
<text text-anchor="middle" x="47.2266" y="-83.8" font-family="Times,serif" font-size="14.00" fill="#000000">userN</text>
</g>
<!-- userN&#45;&#45;sshportalN -->
<g id="edge13" class="edge">
<title>userN&#45;&#45;sshportalN</title>
<path fill="none" stroke="#000000" stroke-dasharray="1,5" d="M78.5238,-88C89.4948,-88 102.0923,-88 114.1488,-88"/>
</g>
</g>
</svg>
