<?xml version="1.0" encoding="UTF-8" standalone="no"?>
<!DOCTYPE svg PUBLIC "-//W3C//DTD SVG 1.1//EN"
 "http://www.w3.org/Graphics/SVG/1.1/DTD/svg11.dtd">
<!-- Generated by graphviz version 2.40.1 (20161225.0304)
 -->
<!-- Title: %3 Pages: 1 -->
<svg width="276pt" height="224pt"
 viewBox="0.00 0.00 276.22 224.00" xmlns="http://www.w3.org/2000/svg" xmlns:xlink="http://www.w3.org/1999/xlink">
<g id="graph0" class="graph" transform="scale(1 1) rotate(0) translate(4 220)">
<title>%3</title>
<polygon fill="#ffffff" stroke="transparent" points="-4,4 -4,-220 272.2168,-220 272.2168,4 -4,4"/>
<g id="clust1" class="cluster">
<title>cluster_sshportal</title>
<polygon fill="none" stroke="#000000" points="82,-46 82,-208 186.2168,-208 186.2168,-46 82,-46"/>
</g>
<!-- sshportal -->
<g id="node1" class="node">
<title>sshportal</title>
<path fill="none" stroke="#a52a2a" stroke-width="3" d="M166.3255,-144C166.3255,-144 101.8913,-144 101.8913,-144 95.8913,-144 89.8913,-138 89.8913,-132 89.8913,-132 89.8913,-120 89.8913,-120 89.8913,-114 95.8913,-108 101.8913,-108 101.8913,-108 166.3255,-108 166.3255,-108 172.3255,-108 178.3255,-114 178.3255,-120 178.3255,-120 178.3255,-132 178.3255,-132 178.3255,-138 172.3255,-144 166.3255,-144"/>
<text text-anchor="middle" x="134.1084" y="-120" font-family="Times,serif" font-size="20.00" fill="#a52a2a">sshportal</text>
</g>
<!-- shell -->
<g id="node2" class="node">
<title>shell</title>
<path fill="none" stroke="#ffa500" d="M162.543,-90C162.543,-90 105.6738,-90 105.6738,-90 99.6738,-90 93.6738,-84 93.6738,-78 93.6738,-78 93.6738,-66 93.6738,-66 93.6738,-60 99.6738,-54 105.6738,-54 105.6738,-54 162.543,-54 162.543,-54 168.543,-54 174.543,-60 174.543,-66 174.543,-66 174.543,-78 174.543,-78 174.543,-84 168.543,-90 162.543,-90"/>
<text text-anchor="middle" x="134.1084" y="-74.8" font-family="Times,serif" font-size="14.00" fill="#ffa500">built&#45;in</text>
<text text-anchor="middle" x="134.1084" y="-60.8" font-family="Times,serif" font-size="14.00" fill="#ffa500">admin shell</text>
</g>
<!-- sshportal&#45;&#45;shell -->
<g id="edge10" class="edge">
<title>sshportal&#45;&#45;shell</title>
<path fill="none" stroke="#ffa500" stroke-width="3" d="M134.1084,-107.7902C134.1084,-101.907 134.1084,-96.0238 134.1084,-90.1406"/>
</g>
<!-- db -->
<g id="node3" class="node">
<title>db</title>
<ellipse fill="none" stroke="#c0c0c0" cx="134.1084" cy="-181" rx="18.9007" ry="18.9007"/>
<text text-anchor="middle" x="134.1084" y="-176.8" font-family="Times,serif" font-size="14.00" fill="#c0c0c0">db</text>
</g>
<!-- sshportal&#45;&#45;db -->
<g id="edge13" class="edge">
<title>sshportal&#45;&#45;db</title>
<path fill="none" stroke="#c0c0c0" stroke-dasharray="1,5" d="M134.1084,-144.0469C134.1084,-150.0133 134.1084,-155.9797 134.1084,-161.946"/>
</g>
<!-- host1 -->
<g id="node4" class="node">
<title>host1</title>
<path fill="none" stroke="#00ff00" d="M256.2168,-198C256.2168,-198 226.2168,-198 226.2168,-198 220.2168,-198 214.2168,-192 214.2168,-186 214.2168,-186 214.2168,-174 214.2168,-174 214.2168,-168 220.2168,-162 226.2168,-162 226.2168,-162 256.2168,-162 256.2168,-162 262.2168,-162 268.2168,-168 268.2168,-174 268.2168,-174 268.2168,-186 268.2168,-186 268.2168,-192 262.2168,-198 256.2168,-198"/>
<text text-anchor="middle" x="241.2168" y="-175.8" font-family="Times,serif" font-size="14.00" fill="#000000">host1</text>
</g>
<!-- sshportal&#45;&#45;host1 -->
<g id="edge2" class="edge">
<title>sshportal&#45;&#45;host1</title>
<path fill="none" stroke="#ff0000" stroke-width="3" d="M178.2919,-141.6183C191.4305,-147.98 205.3457,-155.29 216.7405,-161.8863"/>
</g>
<!-- sshportal&#45;&#45;host1 -->
<g id="edge6" class="edge">
<title>sshportal&#45;&#45;host1</title>
<path fill="none" stroke="#a020f0" stroke-width="3" d="M158.413,-144.0143C174.9543,-153.6007 196.8661,-164.7159 213.9941,-172.2404"/>
</g>
<!-- host2 -->
<g id="node5" class="node">
<title>host2</title>
<path fill="none" stroke="#00ff00" d="M256.2168,-144C256.2168,-144 226.2168,-144 226.2168,-144 220.2168,-144 214.2168,-138 214.2168,-132 214.2168,-132 214.2168,-120 214.2168,-120 214.2168,-114 220.2168,-108 226.2168,-108 226.2168,-108 256.2168,-108 256.2168,-108 262.2168,-108 268.2168,-114 268.2168,-120 268.2168,-120 268.2168,-132 268.2168,-132 268.2168,-138 262.2168,-144 256.2168,-144"/>
<text text-anchor="middle" x="241.2168" y="-121.8" font-family="Times,serif" font-size="14.00" fill="#000000">host2</text>
</g>
<!-- sshportal&#45;&#45;host2 -->
<g id="edge4" class="edge">
<title>sshportal&#45;&#45;host2</title>
<path fill="none" stroke="#0000ff" stroke-width="3" d="M178.2919,-126C190.3932,-126 203.1534,-126 213.9962,-126"/>
</g>
<!-- host3 -->
<g id="node6" class="node">
<title>host3</title>
<path fill="none" stroke="#00ff00" d="M256.2168,-90C256.2168,-90 226.2168,-90 226.2168,-90 220.2168,-90 214.2168,-84 214.2168,-78 214.2168,-78 214.2168,-66 214.2168,-66 214.2168,-60 220.2168,-54 226.2168,-54 226.2168,-54 256.2168,-54 256.2168,-54 262.2168,-54 268.2168,-60 268.2168,-66 268.2168,-66 268.2168,-78 268.2168,-78 268.2168,-84 262.2168,-90 256.2168,-90"/>
<text text-anchor="middle" x="241.2168" y="-67.8" font-family="Times,serif" font-size="14.00" fill="#000000">host3</text>
</g>
<!-- sshportal&#45;&#45;host3 -->
<g id="edge8" class="edge">
<title>sshportal&#45;&#45;host3</title>
<path fill="none" stroke="#00ff00" stroke-width="3" d="M170.0719,-107.8686C184.4145,-100.6376 200.6507,-92.4519 213.9876,-85.728"/>
</g>
<!-- hostN -->
<g id="node7" class="node">
<title>hostN</title>
<path fill="none" stroke="#00ff00" d="M256.2168,-36C256.2168,-36 226.2168,-36 226.2168,-36 220.2168,-36 214.2168,-30 214.2168,-24 214.2168,-24 214.2168,-12 214.2168,-12 214.2168,-6 220.2168,0 226.2168,0 226.2168,0 256.2168,0 256.2168,0 262.2168,0 268.2168,-6 268.2168,-12 268.2168,-12 268.2168,-24 268.2168,-24 268.2168,-30 262.2168,-36 256.2168,-36"/>
<text text-anchor="middle" x="241.2168" y="-13.8" font-family="Times,serif" font-size="14.00" fill="#000000">hostN</text>
</g>
<!-- sshportal&#45;&#45;hostN -->
<g id="edge12" class="edge">
<title>sshportal&#45;&#45;hostN</title>
<path fill="none" stroke="#000000" stroke-dasharray="1,5" d="M175.0827,-107.9914C179.0963,-105.3082 182.9022,-102.3137 186.2168,-99 205.3358,-79.8865 198.2486,-66.8147 214.2168,-45 216.4095,-42.0045 218.9349,-39.0275 221.5425,-36.2043"/>
</g>
<!-- user1 -->
<g id="node8" class="node">
<title>user1</title>
<path fill="none" stroke="#0000ff" d="M42,-198C42,-198 12,-198 12,-198 6,-198 0,-192 0,-186 0,-186 0,-174 0,-174 0,-168 6,-162 12,-162 12,-162 42,-162 42,-162 48,-162 54,-168 54,-174 54,-174 54,-186 54,-186 54,-192 48,-198 42,-198"/>
<text text-anchor="middle" x="27" y="-175.8" font-family="Times,serif" font-size="14.00" fill="#000000">user1</text>
</g>
<!-- user1&#45;&#45;sshportal -->
<g id="edge1" class="edge">
<title>user1&#45;&#45;sshportal</title>
<path fill="none" stroke="#ff0000" stroke-width="3" d="M54.028,-166.3735C67.4141,-159.6248 83.7582,-151.3846 98.1822,-144.1126"/>
</g>
<!-- user2 -->
<g id="node9" class="node">
<title>user2</title>
<path fill="none" stroke="#0000ff" d="M42,-144C42,-144 12,-144 12,-144 6,-144 0,-138 0,-132 0,-132 0,-120 0,-120 0,-114 6,-108 12,-108 12,-108 42,-108 42,-108 48,-108 54,-114 54,-120 54,-120 54,-132 54,-132 54,-138 48,-144 42,-144"/>
<text text-anchor="middle" x="27" y="-121.8" font-family="Times,serif" font-size="14.00" fill="#000000">user2</text>
</g>
<!-- user2&#45;&#45;sshportal -->
<g id="edge3" class="edge">
<title>user2&#45;&#45;sshportal</title>
<path fill="none" stroke="#0000ff" stroke-width="3" d="M54.028,-114.0952C64.8112,-112.6824 77.514,-112.208 89.5863,-112.6721"/>
</g>
<!-- user2&#45;&#45;sshportal -->
<g id="edge7" class="edge">
<title>user2&#45;&#45;sshportal</title>
<path fill="none" stroke="#00ff00" stroke-width="3" d="M54.028,-126C64.8112,-126 77.514,-126 89.5863,-126"/>
</g>
<!-- user2&#45;&#45;sshportal -->
<g id="edge9" class="edge">
<title>user2&#45;&#45;sshportal</title>
<path fill="none" stroke="#ffa500" stroke-width="3" d="M54.028,-137.9048C64.8112,-139.3176 77.514,-139.792 89.5863,-139.3279"/>
</g>
<!-- user3 -->
<g id="node10" class="node">
<title>user3</title>
<path fill="none" stroke="#0000ff" d="M42,-90C42,-90 12,-90 12,-90 6,-90 0,-84 0,-78 0,-78 0,-66 0,-66 0,-60 6,-54 12,-54 12,-54 42,-54 42,-54 48,-54 54,-60 54,-66 54,-66 54,-78 54,-78 54,-84 48,-90 42,-90"/>
<text text-anchor="middle" x="27" y="-67.8" font-family="Times,serif" font-size="14.00" fill="#000000">user3</text>
</g>
<!-- user3&#45;&#45;sshportal -->
<g id="edge5" class="edge">
<title>user3&#45;&#45;sshportal</title>
<path fill="none" stroke="#a020f0" stroke-width="3" d="M54.028,-85.6265C67.4141,-92.3752 83.7582,-100.6154 98.1822,-107.8874"/>
</g>
<!-- userN -->
<g id="node11" class="node">
<title>userN</title>
<path fill="none" stroke="#0000ff" d="M42,-36C42,-36 12,-36 12,-36 6,-36 0,-30 0,-24 0,-24 0,-12 0,-12 0,-6 6,0 12,0 12,0 42,0 42,0 48,0 54,-6 54,-12 54,-12 54,-24 54,-24 54,-30 48,-36 42,-36"/>
<text text-anchor="middle" x="27" y="-13.8" font-family="Times,serif" font-size="14.00" fill="#000000">userN</text>
</g>
<!-- userN&#45;&#45;sshportal -->
<g id="edge11" class="edge">
<title>userN&#45;&#45;sshportal</title>
<path fill="none" stroke="#000000" stroke-dasharray="1,5" d="M46.6743,-36.2043C49.2819,-39.0275 51.8073,-42.0045 54,-45 69.9682,-66.8147 62.881,-79.8865 82,-99 85.3146,-102.3137 89.1205,-105.3082 93.1341,-107.9914"/>
</g>
</g>
</svg>
