<?xml version="1.0" encoding="UTF-8" standalone="no"?>
<!DOCTYPE svg PUBLIC "-//W3C//DTD SVG 1.1//EN"
 "http://www.w3.org/Graphics/SVG/1.1/DTD/svg11.dtd">
<!-- Generated by graphviz version 2.40.1 (20161225.0304)
 -->
<!-- Title: %3 Pages: 1 -->
<svg width="255pt" height="206pt"
 viewBox="0.00 0.00 254.55 206.00" xmlns="http://www.w3.org/2000/svg" xmlns:xlink="http://www.w3.org/1999/xlink">
<g id="graph0" class="graph" transform="scale(1 1) rotate(0) translate(4 202)">
<title>%3</title>
<polygon fill="#ffffff" stroke="transparent" points="-4,4 -4,-202 250.5518,-202 250.5518,4 -4,4"/>
<!-- db -->
<g id="node1" class="node">
<title>db</title>
<path fill="none" stroke="#c0c0c0" d="M138.2759,-90C138.2759,-90 108.2759,-90 108.2759,-90 102.2759,-90 96.2759,-84 96.2759,-78 96.2759,-78 96.2759,-66 96.2759,-66 96.2759,-60 102.2759,-54 108.2759,-54 108.2759,-54 138.2759,-54 138.2759,-54 144.2759,-54 150.2759,-60 150.2759,-66 150.2759,-66 150.2759,-78 150.2759,-78 150.2759,-84 144.2759,-90 138.2759,-90"/>
<text text-anchor="middle" x="123.2759" y="-67.8" font-family="Times,serif" font-size="14.00" fill="#000000">db</text>
</g>
<!-- user1 -->
<g id="node2" class="node">
<title>user1</title>
<path fill="none" stroke="#000000" d="M42,-198C42,-198 12,-198 12,-198 6,-198 0,-192 0,-186 0,-186 0,-174 0,-174 0,-168 6,-162 12,-162 12,-162 42,-162 42,-162 48,-162 54,-168 54,-174 54,-174 54,-186 54,-186 54,-192 48,-198 42,-198"/>
<text text-anchor="middle" x="27" y="-175.8" font-family="Times,serif" font-size="14.00" fill="#000000">user1</text>
</g>
<!-- sshportal -->
<g id="node3" class="node">
<title>sshportal</title>
<path fill="none" stroke="#000000" d="M144.3291,-144C144.3291,-144 102.2226,-144 102.2226,-144 96.2226,-144 90.2226,-138 90.2226,-132 90.2226,-132 90.2226,-120 90.2226,-120 90.2226,-114 96.2226,-108 102.2226,-108 102.2226,-108 144.3291,-108 144.3291,-108 150.3291,-108 156.3291,-114 156.3291,-120 156.3291,-120 156.3291,-132 156.3291,-132 156.3291,-138 150.3291,-144 144.3291,-144"/>
<text text-anchor="middle" x="123.2759" y="-121.8" font-family="Times,serif" font-size="14.00" fill="#000000">sshportal</text>
</g>
<!-- user1&#45;&#45;sshportal -->
<g id="edge1" class="edge">
<title>user1&#45;&#45;sshportal</title>
<path fill="none" stroke="#ff0000" stroke-width="3" d="M54.0744,-164.8143C65.5316,-158.3881 78.9716,-150.8497 90.9443,-144.1344"/>
</g>
<!-- sshportal&#45;&#45;db -->
<g id="edge11" class="edge">
<title>sshportal&#45;&#45;db</title>
<path fill="none" stroke="#c0c0c0" stroke-dasharray="1,5" d="M123.2759,-107.7902C123.2759,-101.907 123.2759,-96.0238 123.2759,-90.1406"/>
</g>
<!-- host1 -->
<g id="node4" class="node">
<title>host1</title>
<path fill="none" stroke="#000000" d="M234.5518,-198C234.5518,-198 204.5518,-198 204.5518,-198 198.5518,-198 192.5518,-192 192.5518,-186 192.5518,-186 192.5518,-174 192.5518,-174 192.5518,-168 198.5518,-162 204.5518,-162 204.5518,-162 234.5518,-162 234.5518,-162 240.5518,-162 246.5518,-168 246.5518,-174 246.5518,-174 246.5518,-186 246.5518,-186 246.5518,-192 240.5518,-198 234.5518,-198"/>
<text text-anchor="middle" x="219.5518" y="-175.8" font-family="Times,serif" font-size="14.00" fill="#000000">host1</text>
</g>
<!-- sshportal&#45;&#45;host1 -->
<g id="edge2" class="edge">
<title>sshportal&#45;&#45;host1</title>
<path fill="none" stroke="#ff0000" stroke-width="3" d="M156.4086,-138.1341C170.0068,-145.1999 185.38,-154.0479 197.5528,-161.8875"/>
</g>
<!-- sshportal&#45;&#45;host1 -->
<g id="edge6" class="edge">
<title>sshportal&#45;&#45;host1</title>
<path fill="none" stroke="#a020f0" stroke-width="3" d="M145.1224,-144.0143C159.1032,-153.0284 177.352,-163.3941 192.2807,-170.8554"/>
</g>
<!-- host2 -->
<g id="node6" class="node">
<title>host2</title>
<path fill="none" stroke="#000000" d="M234.5518,-144C234.5518,-144 204.5518,-144 204.5518,-144 198.5518,-144 192.5518,-138 192.5518,-132 192.5518,-132 192.5518,-120 192.5518,-120 192.5518,-114 198.5518,-108 204.5518,-108 204.5518,-108 234.5518,-108 234.5518,-108 240.5518,-108 246.5518,-114 246.5518,-120 246.5518,-120 246.5518,-132 246.5518,-132 246.5518,-138 240.5518,-144 234.5518,-144"/>
<text text-anchor="middle" x="219.5518" y="-121.8" font-family="Times,serif" font-size="14.00" fill="#000000">host2</text>
</g>
<!-- sshportal&#45;&#45;host2 -->
<g id="edge4" class="edge">
<title>sshportal&#45;&#45;host2</title>
<path fill="none" stroke="#0000ff" stroke-width="3" d="M156.4086,-126C168.1574,-126 181.2313,-126 192.4212,-126"/>
</g>
<!-- host3 -->
<g id="node8" class="node">
<title>host3</title>
<path fill="none" stroke="#000000" d="M234.5518,-90C234.5518,-90 204.5518,-90 204.5518,-90 198.5518,-90 192.5518,-84 192.5518,-78 192.5518,-78 192.5518,-66 192.5518,-66 192.5518,-60 198.5518,-54 204.5518,-54 204.5518,-54 234.5518,-54 234.5518,-54 240.5518,-54 246.5518,-60 246.5518,-66 246.5518,-66 246.5518,-78 246.5518,-78 246.5518,-84 240.5518,-90 234.5518,-90"/>
<text text-anchor="middle" x="219.5518" y="-67.8" font-family="Times,serif" font-size="14.00" fill="#000000">host3</text>
</g>
<!-- sshportal&#45;&#45;host3 -->
<g id="edge8" class="edge">
<title>sshportal&#45;&#45;host3</title>
<path fill="none" stroke="#00ff00" stroke-width="3" d="M155.6022,-107.8686C167.5109,-101.1891 180.872,-93.695 192.2898,-87.2909"/>
</g>
<!-- hostN -->
<g id="node10" class="node">
<title>hostN</title>
<path fill="none" stroke="#000000" d="M234.5518,-36C234.5518,-36 204.5518,-36 204.5518,-36 198.5518,-36 192.5518,-30 192.5518,-24 192.5518,-24 192.5518,-12 192.5518,-12 192.5518,-6 198.5518,0 204.5518,0 204.5518,0 234.5518,0 234.5518,0 240.5518,0 246.5518,-6 246.5518,-12 246.5518,-12 246.5518,-24 246.5518,-24 246.5518,-30 240.5518,-36 234.5518,-36"/>
<text text-anchor="middle" x="219.5518" y="-13.8" font-family="Times,serif" font-size="14.00" fill="#000000">hostN</text>
</g>
<!-- sshportal&#45;&#45;hostN -->
<g id="edge10" class="edge">
<title>sshportal&#45;&#45;hostN</title>
<path fill="none" stroke="#000000" stroke-dasharray="1,5" d="M147.3357,-107.9514C150.577,-105.1054 153.747,-102.0806 156.5518,-99 175.9708,-77.6716 174.2647,-67.3066 192.5518,-45 194.9894,-42.0266 197.7084,-39.0146 200.4561,-36.1341"/>
</g>
<!-- user2 -->
<g id="node5" class="node">
<title>user2</title>
<path fill="none" stroke="#000000" d="M42,-144C42,-144 12,-144 12,-144 6,-144 0,-138 0,-132 0,-132 0,-120 0,-120 0,-114 6,-108 12,-108 12,-108 42,-108 42,-108 48,-108 54,-114 54,-120 54,-120 54,-132 54,-132 54,-138 48,-144 42,-144"/>
<text text-anchor="middle" x="27" y="-121.8" font-family="Times,serif" font-size="14.00" fill="#000000">user2</text>
</g>
<!-- user2&#45;&#45;sshportal -->
<g id="edge3" class="edge">
<title>user2&#45;&#45;sshportal</title>
<path fill="none" stroke="#0000ff" stroke-width="3" d="M54.0744,-119.8607C65.1978,-119.1729 78.1904,-119.0661 89.8945,-119.5402"/>
</g>
<!-- user2&#45;&#45;sshportal -->
<g id="edge7" class="edge">
<title>user2&#45;&#45;sshportal</title>
<path fill="none" stroke="#00ff00" stroke-width="3" d="M54.0744,-132.1393C65.1978,-132.8271 78.1904,-132.9339 89.8945,-132.4598"/>
</g>
<!-- user3 -->
<g id="node7" class="node">
<title>user3</title>
<path fill="none" stroke="#000000" d="M42,-90C42,-90 12,-90 12,-90 6,-90 0,-84 0,-78 0,-78 0,-66 0,-66 0,-60 6,-54 12,-54 12,-54 42,-54 42,-54 48,-54 54,-60 54,-66 54,-66 54,-78 54,-78 54,-84 48,-90 42,-90"/>
<text text-anchor="middle" x="27" y="-67.8" font-family="Times,serif" font-size="14.00" fill="#000000">user3</text>
</g>
<!-- user3&#45;&#45;sshportal -->
<g id="edge5" class="edge">
<title>user3&#45;&#45;sshportal</title>
<path fill="none" stroke="#a020f0" stroke-width="3" d="M54.0744,-87.1857C65.5316,-93.6119 78.9716,-101.1503 90.9443,-107.8656"/>
</g>
<!-- userN -->
<g id="node9" class="node">
<title>userN</title>
<path fill="none" stroke="#000000" d="M42,-36C42,-36 12,-36 12,-36 6,-36 0,-30 0,-24 0,-24 0,-12 0,-12 0,-6 6,0 12,0 12,0 42,0 42,0 48,0 54,-6 54,-12 54,-12 54,-24 54,-24 54,-30 48,-36 42,-36"/>
<text text-anchor="middle" x="27" y="-13.8" font-family="Times,serif" font-size="14.00" fill="#000000">userN</text>
</g>
<!-- userN&#45;&#45;sshportal -->
<g id="edge9" class="edge">
<title>userN&#45;&#45;sshportal</title>
<path fill="none" stroke="#000000" stroke-dasharray="1,5" d="M46.0956,-36.1341C48.8434,-39.0146 51.5624,-42.0266 54,-45 72.287,-67.3066 70.581,-77.6716 90,-99 92.8048,-102.0806 95.9748,-105.1054 99.216,-107.9514"/>
</g>
</g>
</svg>
