<?xml version="1.0" encoding="UTF-8" standalone="no"?>
<!DOCTYPE svg PUBLIC "-//W3C//DTD SVG 1.1//EN"
 "http://www.w3.org/Graphics/SVG/1.1/DTD/svg11.dtd">
<!-- Generated by graphviz version 2.40.1 (20161225.0304)
 -->
<!-- Title: Database Structure Pages: 1 -->
<svg width="1498pt" height="1073pt"
 viewBox="0.00 0.00 1498.00 1073.00" xmlns="http://www.w3.org/2000/svg" xmlns:xlink="http://www.w3.org/1999/xlink">
<g id="graph0" class="graph" transform="scale(1 1) rotate(0) translate(4 1069)">
<title>Database Structure</title>
<polygon fill="#ffffff" stroke="transparent" points="-4,4 -4,-1069 1494,-1069 1494,4 -4,4"/>
<text text-anchor="middle" x="745" y="-1049.8" font-family="Helvetica,sans-Serif" font-size="14.00" fill="#000000">ER Diagram: db</text>
<!-- acls -->
<g id="node1" class="node">
<title>acls</title>
<polygon fill="#dddddd" stroke="transparent" points="700,-556 700,-576 828,-576 828,-556 700,-556"/>
<polygon fill="none" stroke="#000000" points="700,-556 700,-576 828,-576 828,-556 700,-556"/>
<text text-anchor="start" x="753.1172" y="-561.8" font-family="Times,serif" font-size="14.00" fill="#000000">acls</text>
<polygon fill="none" stroke="#000000" points="700,-536 700,-556 828,-556 828,-536 700,-536"/>
<text text-anchor="start" x="748.5562" y="-542.8" font-family="Times,serif" font-size="14.00" fill="#000000">id:</text>
<text text-anchor="start" x="763.3354" y="-542.8" font-family="Helvetica,sans-Serif" font-style="oblique" font-size="10.00" fill="#000000">INT</text>
<polygon fill="none" stroke="#000000" points="700,-516 700,-536 828,-536 828,-516 700,-516"/>
<text text-anchor="start" x="704.501" y="-522.8" font-family="Times,serif" font-size="14.00" fill="#000000">created_at:</text>
<text text-anchor="start" x="765.9014" y="-522.8" font-family="Helvetica,sans-Serif" font-style="oblique" font-size="10.00" fill="#000000">TIMESTAMP</text>
<polygon fill="none" stroke="#000000" points="700,-496 700,-516 828,-516 828,-496 700,-496"/>
<text text-anchor="start" x="702.5459" y="-502.8" font-family="Times,serif" font-size="14.00" fill="#000000">updated_at:</text>
<text text-anchor="start" x="767.8564" y="-502.8" font-family="Helvetica,sans-Serif" font-style="oblique" font-size="10.00" fill="#000000">TIMESTAMP</text>
<polygon fill="none" stroke="#000000" points="700,-476 700,-496 828,-496 828,-476 700,-476"/>
<text text-anchor="start" x="704.4941" y="-482.8" font-family="Times,serif" font-size="14.00" fill="#000000">deleted_at:</text>
<text text-anchor="start" x="765.9082" y="-482.8" font-family="Helvetica,sans-Serif" font-style="oblique" font-size="10.00" fill="#000000">TIMESTAMP</text>
<polygon fill="none" stroke="#000000" points="700,-456 700,-476 828,-476 828,-456 700,-456"/>
<text text-anchor="start" x="703.3721" y="-462.8" font-family="Times,serif" font-size="14.00" fill="#000000">host_pattern:</text>
<text text-anchor="start" x="776.4688" y="-462.8" font-family="Helvetica,sans-Serif" font-style="oblique" font-size="10.00" fill="#000000">VARCHAR</text>
<polygon fill="none" stroke="#000000" points="700,-436 700,-456 828,-456 828,-436 700,-436"/>
<text text-anchor="start" x="720.8721" y="-442.8" font-family="Times,serif" font-size="14.00" fill="#000000">action:</text>
<text text-anchor="start" x="758.9688" y="-442.8" font-family="Helvetica,sans-Serif" font-style="oblique" font-size="10.00" fill="#000000">VARCHAR</text>
<polygon fill="none" stroke="#000000" points="700,-416 700,-436 828,-436 828,-416 700,-416"/>
<text text-anchor="start" x="734.9492" y="-422.8" font-family="Times,serif" font-size="14.00" fill="#000000">weight:</text>
<text text-anchor="start" x="776.9424" y="-422.8" font-family="Helvetica,sans-Serif" font-style="oblique" font-size="10.00" fill="#000000">INT</text>
<polygon fill="none" stroke="#000000" points="700,-396 700,-416 828,-416 828,-396 700,-396"/>
<text text-anchor="start" x="711.9272" y="-402.8" font-family="Times,serif" font-size="14.00" fill="#000000">comment:</text>
<text text-anchor="start" x="767.9136" y="-402.8" font-family="Helvetica,sans-Serif" font-style="oblique" font-size="10.00" fill="#000000">VARCHAR</text>
</g>
<!-- host_group_acls -->
<g id="node2" class="node">
<title>host_group_acls</title>
<polygon fill="#dddddd" stroke="transparent" points="137,-673 137,-693 243,-693 243,-673 137,-673"/>
<polygon fill="none" stroke="#000000" points="137,-673 137,-693 243,-693 243,-673 137,-673"/>
<text text-anchor="start" x="144.1172" y="-678.8" font-family="Times,serif" font-size="14.00" fill="#000000">host_group_acls</text>
<polygon fill="none" stroke="#000000" points="137,-653 137,-673 243,-673 243,-653 137,-653"/>
<text text-anchor="start" x="139.5562" y="-659.8" font-family="Times,serif" font-size="14.00" fill="#000000">host_group_id:</text>
<text text-anchor="start" x="224.3354" y="-659.8" font-family="Helvetica,sans-Serif" font-style="oblique" font-size="10.00" fill="#000000">INT</text>
<polygon fill="none" stroke="#000000" points="137,-633 137,-653 243,-653 243,-633 137,-633"/>
<text text-anchor="start" x="162.8975" y="-639.8" font-family="Times,serif" font-size="14.00" fill="#000000">acl_id:</text>
<text text-anchor="start" x="200.9941" y="-639.8" font-family="Helvetica,sans-Serif" font-style="oblique" font-size="10.00" fill="#000000">INT</text>
</g>
<!-- host_group_acls&#45;&gt;acls -->
<g id="edge1" class="edge">
<title>host_group_acls:acl_id&#45;&gt;acls:id</title>
<path fill="none" stroke="#444444" stroke-dasharray="5,2" d="M243,-643C447.1889,-643 490.9328,-549.194 689.7944,-546.0793"/>
<polygon fill="#444444" stroke="#444444" points="700.0272,-549.4999 690.0003,-546.0778 699.9728,-542.5001 700.0272,-549.4999"/>
</g>
<!-- host_groups -->
<g id="node3" class="node">
<title>host_groups</title>
<polygon fill="#dddddd" stroke="transparent" points="700,-722 700,-742 828,-742 828,-722 700,-722"/>
<polygon fill="none" stroke="#000000" points="700,-722 700,-742 828,-742 828,-722 700,-722"/>
<text text-anchor="start" x="729.7759" y="-727.8" font-family="Times,serif" font-size="14.00" fill="#000000">host_groups</text>
<polygon fill="none" stroke="#000000" points="700,-702 700,-722 828,-722 828,-702 700,-702"/>
<text text-anchor="start" x="748.5562" y="-708.8" font-family="Times,serif" font-size="14.00" fill="#000000">id:</text>
<text text-anchor="start" x="763.3354" y="-708.8" font-family="Helvetica,sans-Serif" font-style="oblique" font-size="10.00" fill="#000000">INT</text>
<polygon fill="none" stroke="#000000" points="700,-682 700,-702 828,-702 828,-682 700,-682"/>
<text text-anchor="start" x="704.501" y="-688.8" font-family="Times,serif" font-size="14.00" fill="#000000">created_at:</text>
<text text-anchor="start" x="765.9014" y="-688.8" font-family="Helvetica,sans-Serif" font-style="oblique" font-size="10.00" fill="#000000">TIMESTAMP</text>
<polygon fill="none" stroke="#000000" points="700,-662 700,-682 828,-682 828,-662 700,-662"/>
<text text-anchor="start" x="702.5459" y="-668.8" font-family="Times,serif" font-size="14.00" fill="#000000">updated_at:</text>
<text text-anchor="start" x="767.8564" y="-668.8" font-family="Helvetica,sans-Serif" font-style="oblique" font-size="10.00" fill="#000000">TIMESTAMP</text>
<polygon fill="none" stroke="#000000" points="700,-642 700,-662 828,-662 828,-642 700,-642"/>
<text text-anchor="start" x="704.4941" y="-648.8" font-family="Times,serif" font-size="14.00" fill="#000000">deleted_at:</text>
<text text-anchor="start" x="765.9082" y="-648.8" font-family="Helvetica,sans-Serif" font-style="oblique" font-size="10.00" fill="#000000">TIMESTAMP</text>
<polygon fill="none" stroke="#000000" points="700,-622 700,-642 828,-642 828,-622 700,-622"/>
<text text-anchor="start" x="722.8169" y="-628.8" font-family="Times,serif" font-size="14.00" fill="#000000">name:</text>
<text text-anchor="start" x="757.0239" y="-628.8" font-family="Helvetica,sans-Serif" font-style="oblique" font-size="10.00" fill="#000000">VARCHAR</text>
<polygon fill="none" stroke="#000000" points="700,-602 700,-622 828,-622 828,-602 700,-602"/>
<text text-anchor="start" x="711.9272" y="-608.8" font-family="Times,serif" font-size="14.00" fill="#000000">comment:</text>
<text text-anchor="start" x="767.9136" y="-608.8" font-family="Helvetica,sans-Serif" font-style="oblique" font-size="10.00" fill="#000000">VARCHAR</text>
</g>
<!-- host_group_acls&#45;&gt;host_groups -->
<g id="edge2" class="edge">
<title>host_group_acls:host_group_id&#45;&gt;host_groups:id</title>
<path fill="none" stroke="#444444" stroke-dasharray="5,2" d="M243,-663C443.884,-663 494.0731,-710.3866 689.9535,-711.9599"/>
<polygon fill="#444444" stroke="#444444" points="699.986,-715.5 690.0001,-711.96 700.014,-708.5 699.986,-715.5"/>
</g>
<!-- host_host_groups -->
<g id="node4" class="node">
<title>host_host_groups</title>
<polygon fill="#dddddd" stroke="transparent" points="137,-787 137,-807 243,-807 243,-787 137,-787"/>
<polygon fill="none" stroke="#000000" points="137,-787 137,-807 243,-807 243,-787 137,-787"/>
<text text-anchor="start" x="140.6069" y="-792.8" font-family="Times,serif" font-size="14.00" fill="#000000">host_host_groups</text>
<polygon fill="none" stroke="#000000" points="137,-767 137,-787 243,-787 243,-767 137,-767"/>
<text text-anchor="start" x="159.3872" y="-773.8" font-family="Times,serif" font-size="14.00" fill="#000000">host_id:</text>
<text text-anchor="start" x="204.5044" y="-773.8" font-family="Helvetica,sans-Serif" font-style="oblique" font-size="10.00" fill="#000000">INT</text>
<polygon fill="none" stroke="#000000" points="137,-747 137,-767 243,-767 243,-747 137,-747"/>
<text text-anchor="start" x="139.5562" y="-753.8" font-family="Times,serif" font-size="14.00" fill="#000000">host_group_id:</text>
<text text-anchor="start" x="224.3354" y="-753.8" font-family="Helvetica,sans-Serif" font-style="oblique" font-size="10.00" fill="#000000">INT</text>
</g>
<!-- host_host_groups&#45;&gt;host_groups -->
<g id="edge4" class="edge">
<title>host_host_groups:host_group_id&#45;&gt;host_groups:id</title>
<path fill="none" stroke="#444444" stroke-dasharray="5,2" d="M243,-757C443.7051,-757 494.243,-713.4817 689.9622,-712.0368"/>
<polygon fill="#444444" stroke="#444444" points="700.0129,-715.5 690.0001,-712.0368 699.9871,-708.5 700.0129,-715.5"/>
</g>
<!-- hosts -->
<g id="node5" class="node">
<title>hosts</title>
<polygon fill="#dddddd" stroke="transparent" points="700,-1008 700,-1028 828,-1028 828,-1008 700,-1008"/>
<polygon fill="none" stroke="#000000" points="700,-1008 700,-1028 828,-1028 828,-1008 700,-1008"/>
<text text-anchor="start" x="749.6069" y="-1013.8" font-family="Times,serif" font-size="14.00" fill="#000000">hosts</text>
<polygon fill="none" stroke="#000000" points="700,-988 700,-1008 828,-1008 828,-988 700,-988"/>
<text text-anchor="start" x="748.5562" y="-994.8" font-family="Times,serif" font-size="14.00" fill="#000000">id:</text>
<text text-anchor="start" x="763.3354" y="-994.8" font-family="Helvetica,sans-Serif" font-style="oblique" font-size="10.00" fill="#000000">INT</text>
<polygon fill="none" stroke="#000000" points="700,-968 700,-988 828,-988 828,-968 700,-968"/>
<text text-anchor="start" x="704.501" y="-974.8" font-family="Times,serif" font-size="14.00" fill="#000000">created_at:</text>
<text text-anchor="start" x="765.9014" y="-974.8" font-family="Helvetica,sans-Serif" font-style="oblique" font-size="10.00" fill="#000000">TIMESTAMP</text>
<polygon fill="none" stroke="#000000" points="700,-948 700,-968 828,-968 828,-948 700,-948"/>
<text text-anchor="start" x="702.5459" y="-954.8" font-family="Times,serif" font-size="14.00" fill="#000000">updated_at:</text>
<text text-anchor="start" x="767.8564" y="-954.8" font-family="Helvetica,sans-Serif" font-style="oblique" font-size="10.00" fill="#000000">TIMESTAMP</text>
<polygon fill="none" stroke="#000000" points="700,-928 700,-948 828,-948 828,-928 700,-928"/>
<text text-anchor="start" x="704.4941" y="-934.8" font-family="Times,serif" font-size="14.00" fill="#000000">deleted_at:</text>
<text text-anchor="start" x="765.9082" y="-934.8" font-family="Helvetica,sans-Serif" font-style="oblique" font-size="10.00" fill="#000000">TIMESTAMP</text>
<polygon fill="none" stroke="#000000" points="700,-908 700,-928 828,-928 828,-908 700,-908"/>
<text text-anchor="start" x="722.8169" y="-914.8" font-family="Times,serif" font-size="14.00" fill="#000000">name:</text>
<text text-anchor="start" x="757.0239" y="-914.8" font-family="Helvetica,sans-Serif" font-style="oblique" font-size="10.00" fill="#000000">VARCHAR</text>
<polygon fill="none" stroke="#000000" points="700,-888 700,-908 828,-908 828,-888 700,-888"/>
<text text-anchor="start" x="725.5376" y="-894.8" font-family="Times,serif" font-size="14.00" fill="#000000">addr:</text>
<text text-anchor="start" x="754.3032" y="-894.8" font-family="Helvetica,sans-Serif" font-style="oblique" font-size="10.00" fill="#000000">VARCHAR</text>
<polygon fill="none" stroke="#000000" points="700,-868 700,-888 828,-888 828,-868 700,-868"/>
<text text-anchor="start" x="726.3135" y="-874.8" font-family="Times,serif" font-size="14.00" fill="#000000">user:</text>
<text text-anchor="start" x="753.5273" y="-874.8" font-family="Helvetica,sans-Serif" font-style="oblique" font-size="10.00" fill="#000000">VARCHAR</text>
<polygon fill="none" stroke="#000000" points="700,-848 700,-868 828,-868 828,-848 700,-848"/>
<text text-anchor="start" x="711.5342" y="-854.8" font-family="Times,serif" font-size="14.00" fill="#000000">password:</text>
<text text-anchor="start" x="768.3066" y="-854.8" font-family="Helvetica,sans-Serif" font-style="oblique" font-size="10.00" fill="#000000">VARCHAR</text>
<polygon fill="none" stroke="#000000" points="700,-828 700,-848 828,-848 828,-828 700,-828"/>
<text text-anchor="start" x="722.501" y="-834.8" font-family="Times,serif" font-size="14.00" fill="#000000">ssh_key_id:</text>
<text text-anchor="start" x="789.3906" y="-834.8" font-family="Helvetica,sans-Serif" font-style="oblique" font-size="10.00" fill="#000000">INT</text>
<polygon fill="none" stroke="#000000" points="700,-808 700,-828 828,-828 828,-808 700,-808"/>
<text text-anchor="start" x="708.4238" y="-814.8" font-family="Times,serif" font-size="14.00" fill="#000000">fingerprint:</text>
<text text-anchor="start" x="771.417" y="-814.8" font-family="Helvetica,sans-Serif" font-style="oblique" font-size="10.00" fill="#000000">VARCHAR</text>
<polygon fill="none" stroke="#000000" points="700,-788 700,-808 828,-808 828,-788 700,-788"/>
<text text-anchor="start" x="711.9272" y="-794.8" font-family="Times,serif" font-size="14.00" fill="#000000">comment:</text>
<text text-anchor="start" x="767.9136" y="-794.8" font-family="Helvetica,sans-Serif" font-style="oblique" font-size="10.00" fill="#000000">VARCHAR</text>
<polygon fill="none" stroke="#000000" points="700,-768 700,-788 828,-788 828,-768 700,-768"/>
<text text-anchor="start" x="708.3394" y="-774.8" font-family="Times,serif" font-size="14.00" fill="#000000">host_key:</text>
<text text-anchor="start" x="762.7808" y="-774.8" font-family="Helvetica,sans-Serif" font-style="oblique" font-size="10.00" fill="#000000">VARBINARY</text>
</g>
<!-- host_host_groups&#45;&gt;hosts -->
<g id="edge3" class="edge">
<title>host_host_groups:host_id&#45;&gt;hosts:id</title>
<path fill="none" stroke="#444444" stroke-dasharray="5,2" d="M243,-777C465.1991,-777 474.1608,-991.3602 689.9044,-997.8496"/>
<polygon fill="#444444" stroke="#444444" points="699.9478,-1001.4996 690.0011,-997.851 700.0522,-994.5004 699.9478,-1001.4996"/>
</g>
<!-- ssh_keys -->
<g id="node8" class="node">
<title>ssh_keys</title>
<polygon fill="#dddddd" stroke="transparent" points="1255,-848 1255,-868 1383,-868 1383,-848 1255,-848"/>
<polygon fill="none" stroke="#000000" points="1255,-848 1255,-868 1383,-868 1383,-848 1255,-848"/>
<text text-anchor="start" x="1293.7207" y="-853.8" font-family="Times,serif" font-size="14.00" fill="#000000">ssh_keys</text>
<polygon fill="none" stroke="#000000" points="1255,-828 1255,-848 1383,-848 1383,-828 1255,-828"/>
<text text-anchor="start" x="1303.5562" y="-834.8" font-family="Times,serif" font-size="14.00" fill="#000000">id:</text>
<text text-anchor="start" x="1318.3354" y="-834.8" font-family="Helvetica,sans-Serif" font-style="oblique" font-size="10.00" fill="#000000">INT</text>
<polygon fill="none" stroke="#000000" points="1255,-808 1255,-828 1383,-828 1383,-808 1255,-808"/>
<text text-anchor="start" x="1259.501" y="-814.8" font-family="Times,serif" font-size="14.00" fill="#000000">created_at:</text>
<text text-anchor="start" x="1320.9014" y="-814.8" font-family="Helvetica,sans-Serif" font-style="oblique" font-size="10.00" fill="#000000">TIMESTAMP</text>
<polygon fill="none" stroke="#000000" points="1255,-788 1255,-808 1383,-808 1383,-788 1255,-788"/>
<text text-anchor="start" x="1257.5459" y="-794.8" font-family="Times,serif" font-size="14.00" fill="#000000">updated_at:</text>
<text text-anchor="start" x="1322.8564" y="-794.8" font-family="Helvetica,sans-Serif" font-style="oblique" font-size="10.00" fill="#000000">TIMESTAMP</text>
<polygon fill="none" stroke="#000000" points="1255,-768 1255,-788 1383,-788 1383,-768 1255,-768"/>
<text text-anchor="start" x="1259.4941" y="-774.8" font-family="Times,serif" font-size="14.00" fill="#000000">deleted_at:</text>
<text text-anchor="start" x="1320.9082" y="-774.8" font-family="Helvetica,sans-Serif" font-style="oblique" font-size="10.00" fill="#000000">TIMESTAMP</text>
<polygon fill="none" stroke="#000000" points="1255,-748 1255,-768 1383,-768 1383,-748 1255,-748"/>
<text text-anchor="start" x="1277.8169" y="-754.8" font-family="Times,serif" font-size="14.00" fill="#000000">name:</text>
<text text-anchor="start" x="1312.0239" y="-754.8" font-family="Helvetica,sans-Serif" font-style="oblique" font-size="10.00" fill="#000000">VARCHAR</text>
<polygon fill="none" stroke="#000000" points="1255,-728 1255,-748 1383,-748 1383,-728 1255,-728"/>
<text text-anchor="start" x="1280.9238" y="-734.8" font-family="Times,serif" font-size="14.00" fill="#000000">type:</text>
<text text-anchor="start" x="1308.917" y="-734.8" font-family="Helvetica,sans-Serif" font-style="oblique" font-size="10.00" fill="#000000">VARCHAR</text>
<polygon fill="none" stroke="#000000" points="1255,-708 1255,-728 1383,-728 1383,-708 1255,-708"/>
<text text-anchor="start" x="1291.5044" y="-714.8" font-family="Times,serif" font-size="14.00" fill="#000000">length:</text>
<text text-anchor="start" x="1330.3872" y="-714.8" font-family="Helvetica,sans-Serif" font-style="oblique" font-size="10.00" fill="#000000">INT</text>
<polygon fill="none" stroke="#000000" points="1255,-688 1255,-708 1383,-708 1383,-688 1255,-688"/>
<text text-anchor="start" x="1263.4238" y="-694.8" font-family="Times,serif" font-size="14.00" fill="#000000">fingerprint:</text>
<text text-anchor="start" x="1326.417" y="-694.8" font-family="Helvetica,sans-Serif" font-style="oblique" font-size="10.00" fill="#000000">VARCHAR</text>
<polygon fill="none" stroke="#000000" points="1255,-668 1255,-688 1383,-688 1383,-668 1255,-668"/>
<text text-anchor="start" x="1268.0928" y="-674.8" font-family="Times,serif" font-size="14.00" fill="#000000">priv_key:</text>
<text text-anchor="start" x="1321.748" y="-674.8" font-family="Helvetica,sans-Serif" font-style="oblique" font-size="10.00" fill="#000000">VARCHAR</text>
<polygon fill="none" stroke="#000000" points="1255,-648 1255,-668 1383,-668 1383,-648 1255,-648"/>
<text text-anchor="start" x="1268.8687" y="-654.8" font-family="Times,serif" font-size="14.00" fill="#000000">pub_key:</text>
<text text-anchor="start" x="1320.9722" y="-654.8" font-family="Helvetica,sans-Serif" font-style="oblique" font-size="10.00" fill="#000000">VARCHAR</text>
<polygon fill="none" stroke="#000000" points="1255,-628 1255,-648 1383,-648 1383,-628 1255,-628"/>
<text text-anchor="start" x="1266.9272" y="-634.8" font-family="Times,serif" font-size="14.00" fill="#000000">comment:</text>
<text text-anchor="start" x="1322.9136" y="-634.8" font-family="Helvetica,sans-Serif" font-style="oblique" font-size="10.00" fill="#000000">VARCHAR</text>
</g>
<!-- hosts&#45;&gt;ssh_keys -->
<g id="edge5" class="edge">
<title>hosts:ssh_key_id&#45;&gt;ssh_keys:id</title>
<path fill="none" stroke="#444444" stroke-dasharray="5,2" d="M828,-838C1014.3492,-838 1063.4615,-838 1244.8519,-838"/>
<polygon fill="#444444" stroke="#444444" points="1255,-841.5 1245,-838.0001 1255,-834.5 1255,-841.5"/>
</g>
<!-- migrations -->
<g id="node6" class="node">
<title>migrations</title>
<polygon fill="#dddddd" stroke="transparent" points="156,-853 156,-873 224,-873 224,-853 156,-853"/>
<polygon fill="none" stroke="#000000" points="156,-853 156,-873 224,-873 224,-853 156,-853"/>
<text text-anchor="start" x="160.0586" y="-858.8" font-family="Times,serif" font-size="14.00" fill="#000000">migrations</text>
<polygon fill="none" stroke="#000000" points="156,-833 156,-853 224,-853 224,-833 156,-833"/>
<text text-anchor="start" x="158.5308" y="-839.8" font-family="Times,serif" font-size="14.00" fill="#000000">id:</text>
<text text-anchor="start" x="173.3101" y="-839.8" font-family="Helvetica,sans-Serif" font-style="oblique" font-size="10.00" fill="#000000">VARCHAR</text>
</g>
<!-- settings -->
<g id="node7" class="node">
<title>settings</title>
<polygon fill="#dddddd" stroke="transparent" points="126,-1019 126,-1039 254,-1039 254,-1019 126,-1019"/>
<polygon fill="none" stroke="#000000" points="126,-1019 126,-1039 254,-1039 254,-1019 126,-1019"/>
<text text-anchor="start" x="168.6104" y="-1024.8" font-family="Times,serif" font-size="14.00" fill="#000000">settings</text>
<polygon fill="none" stroke="#000000" points="126,-999 126,-1019 254,-1019 254,-999 126,-999"/>
<text text-anchor="start" x="174.5562" y="-1005.8" font-family="Times,serif" font-size="14.00" fill="#000000">id:</text>
<text text-anchor="start" x="189.3354" y="-1005.8" font-family="Helvetica,sans-Serif" font-style="oblique" font-size="10.00" fill="#000000">INT</text>
<polygon fill="none" stroke="#000000" points="126,-979 126,-999 254,-999 254,-979 126,-979"/>
<text text-anchor="start" x="130.501" y="-985.8" font-family="Times,serif" font-size="14.00" fill="#000000">created_at:</text>
<text text-anchor="start" x="191.9014" y="-985.8" font-family="Helvetica,sans-Serif" font-style="oblique" font-size="10.00" fill="#000000">TIMESTAMP</text>
<polygon fill="none" stroke="#000000" points="126,-959 126,-979 254,-979 254,-959 126,-959"/>
<text text-anchor="start" x="128.5459" y="-965.8" font-family="Times,serif" font-size="14.00" fill="#000000">updated_at:</text>
<text text-anchor="start" x="193.8564" y="-965.8" font-family="Helvetica,sans-Serif" font-style="oblique" font-size="10.00" fill="#000000">TIMESTAMP</text>
<polygon fill="none" stroke="#000000" points="126,-939 126,-959 254,-959 254,-939 126,-939"/>
<text text-anchor="start" x="130.4941" y="-945.8" font-family="Times,serif" font-size="14.00" fill="#000000">deleted_at:</text>
<text text-anchor="start" x="191.9082" y="-945.8" font-family="Helvetica,sans-Serif" font-style="oblique" font-size="10.00" fill="#000000">TIMESTAMP</text>
<polygon fill="none" stroke="#000000" points="126,-919 126,-939 254,-939 254,-919 126,-919"/>
<text text-anchor="start" x="148.8169" y="-925.8" font-family="Times,serif" font-size="14.00" fill="#000000">name:</text>
<text text-anchor="start" x="183.0239" y="-925.8" font-family="Helvetica,sans-Serif" font-style="oblique" font-size="10.00" fill="#000000">VARCHAR</text>
<polygon fill="none" stroke="#000000" points="126,-899 126,-919 254,-919 254,-899 126,-899"/>
<text text-anchor="start" x="148.8169" y="-905.8" font-family="Times,serif" font-size="14.00" fill="#000000">value:</text>
<text text-anchor="start" x="183.0239" y="-905.8" font-family="Helvetica,sans-Serif" font-style="oblique" font-size="10.00" fill="#000000">VARCHAR</text>
</g>
<!-- user_group_acls -->
<g id="node9" class="node">
<title>user_group_acls</title>
<polygon fill="#dddddd" stroke="transparent" points="137,-530 137,-550 243,-550 243,-530 137,-530"/>
<polygon fill="none" stroke="#000000" points="137,-530 137,-550 243,-550 243,-530 137,-530"/>
<text text-anchor="start" x="144.124" y="-535.8" font-family="Times,serif" font-size="14.00" fill="#000000">user_group_acls</text>
<polygon fill="none" stroke="#000000" points="137,-510 137,-530 243,-530 243,-510 137,-510"/>
<text text-anchor="start" x="139.563" y="-516.8" font-family="Times,serif" font-size="14.00" fill="#000000">user_group_id:</text>
<text text-anchor="start" x="224.3286" y="-516.8" font-family="Helvetica,sans-Serif" font-style="oblique" font-size="10.00" fill="#000000">INT</text>
<polygon fill="none" stroke="#000000" points="137,-490 137,-510 243,-510 243,-490 137,-490"/>
<text text-anchor="start" x="162.8975" y="-496.8" font-family="Times,serif" font-size="14.00" fill="#000000">acl_id:</text>
<text text-anchor="start" x="200.9941" y="-496.8" font-family="Helvetica,sans-Serif" font-style="oblique" font-size="10.00" fill="#000000">INT</text>
</g>
<!-- user_group_acls&#45;&gt;acls -->
<g id="edge6" class="edge">
<title>user_group_acls:acl_id&#45;&gt;acls:id</title>
<path fill="none" stroke="#444444" stroke-dasharray="5,2" d="M243,-500C443.7485,-500 494.2019,-544.4853 689.9601,-545.9624"/>
<polygon fill="#444444" stroke="#444444" points="699.9869,-549.5 690.0001,-545.9624 700.0131,-542.5 699.9869,-549.5"/>
</g>
<!-- user_groups -->
<g id="node10" class="node">
<title>user_groups</title>
<polygon fill="#dddddd" stroke="transparent" points="700,-350 700,-370 828,-370 828,-350 700,-350"/>
<polygon fill="none" stroke="#000000" points="700,-350 700,-370 828,-370 828,-350 700,-350"/>
<text text-anchor="start" x="729.7827" y="-355.8" font-family="Times,serif" font-size="14.00" fill="#000000">user_groups</text>
<polygon fill="none" stroke="#000000" points="700,-330 700,-350 828,-350 828,-330 700,-330"/>
<text text-anchor="start" x="748.5562" y="-336.8" font-family="Times,serif" font-size="14.00" fill="#000000">id:</text>
<text text-anchor="start" x="763.3354" y="-336.8" font-family="Helvetica,sans-Serif" font-style="oblique" font-size="10.00" fill="#000000">INT</text>
<polygon fill="none" stroke="#000000" points="700,-310 700,-330 828,-330 828,-310 700,-310"/>
<text text-anchor="start" x="704.501" y="-316.8" font-family="Times,serif" font-size="14.00" fill="#000000">created_at:</text>
<text text-anchor="start" x="765.9014" y="-316.8" font-family="Helvetica,sans-Serif" font-style="oblique" font-size="10.00" fill="#000000">TIMESTAMP</text>
<polygon fill="none" stroke="#000000" points="700,-290 700,-310 828,-310 828,-290 700,-290"/>
<text text-anchor="start" x="702.5459" y="-296.8" font-family="Times,serif" font-size="14.00" fill="#000000">updated_at:</text>
<text text-anchor="start" x="767.8564" y="-296.8" font-family="Helvetica,sans-Serif" font-style="oblique" font-size="10.00" fill="#000000">TIMESTAMP</text>
<polygon fill="none" stroke="#000000" points="700,-270 700,-290 828,-290 828,-270 700,-270"/>
<text text-anchor="start" x="704.4941" y="-276.8" font-family="Times,serif" font-size="14.00" fill="#000000">deleted_at:</text>
<text text-anchor="start" x="765.9082" y="-276.8" font-family="Helvetica,sans-Serif" font-style="oblique" font-size="10.00" fill="#000000">TIMESTAMP</text>
<polygon fill="none" stroke="#000000" points="700,-250 700,-270 828,-270 828,-250 700,-250"/>
<text text-anchor="start" x="722.8169" y="-256.8" font-family="Times,serif" font-size="14.00" fill="#000000">name:</text>
<text text-anchor="start" x="757.0239" y="-256.8" font-family="Helvetica,sans-Serif" font-style="oblique" font-size="10.00" fill="#000000">VARCHAR</text>
<polygon fill="none" stroke="#000000" points="700,-230 700,-250 828,-250 828,-230 700,-230"/>
<text text-anchor="start" x="711.9272" y="-236.8" font-family="Times,serif" font-size="14.00" fill="#000000">comment:</text>
<text text-anchor="start" x="767.9136" y="-236.8" font-family="Helvetica,sans-Serif" font-style="oblique" font-size="10.00" fill="#000000">VARCHAR</text>
</g>
<!-- user_group_acls&#45;&gt;user_groups -->
<g id="edge7" class="edge">
<title>user_group_acls:user_group_id&#45;&gt;user_groups:id</title>
<path fill="none" stroke="#444444" stroke-dasharray="5,2" d="M243,-520C457.8873,-520 481.0158,-345.5811 689.9107,-340.1305"/>
<polygon fill="#444444" stroke="#444444" points="700.0453,-343.4997 690.0008,-340.1294 699.9547,-336.5003 700.0453,-343.4997"/>
</g>
<!-- user_keys -->
<g id="node11" class="node">
<title>user_keys</title>
<polygon fill="#dddddd" stroke="transparent" points="118,-284 118,-304 262,-304 262,-284 118,-284"/>
<polygon fill="none" stroke="#000000" points="118,-284 118,-304 262,-304 262,-284 118,-284"/>
<text text-anchor="start" x="162.0068" y="-289.8" font-family="Times,serif" font-size="14.00" fill="#000000">user_keys</text>
<polygon fill="none" stroke="#000000" points="118,-264 118,-284 262,-284 262,-264 118,-264"/>
<text text-anchor="start" x="174.5562" y="-270.8" font-family="Times,serif" font-size="14.00" fill="#000000">id:</text>
<text text-anchor="start" x="189.3354" y="-270.8" font-family="Helvetica,sans-Serif" font-style="oblique" font-size="10.00" fill="#000000">INT</text>
<polygon fill="none" stroke="#000000" points="118,-244 118,-264 262,-264 262,-244 118,-244"/>
<text text-anchor="start" x="130.501" y="-250.8" font-family="Times,serif" font-size="14.00" fill="#000000">created_at:</text>
<text text-anchor="start" x="191.9014" y="-250.8" font-family="Helvetica,sans-Serif" font-style="oblique" font-size="10.00" fill="#000000">TIMESTAMP</text>
<polygon fill="none" stroke="#000000" points="118,-224 118,-244 262,-244 262,-224 118,-224"/>
<text text-anchor="start" x="128.5459" y="-230.8" font-family="Times,serif" font-size="14.00" fill="#000000">updated_at:</text>
<text text-anchor="start" x="193.8564" y="-230.8" font-family="Helvetica,sans-Serif" font-style="oblique" font-size="10.00" fill="#000000">TIMESTAMP</text>
<polygon fill="none" stroke="#000000" points="118,-204 118,-224 262,-224 262,-204 118,-204"/>
<text text-anchor="start" x="130.4941" y="-210.8" font-family="Times,serif" font-size="14.00" fill="#000000">deleted_at:</text>
<text text-anchor="start" x="191.9082" y="-210.8" font-family="Helvetica,sans-Serif" font-style="oblique" font-size="10.00" fill="#000000">TIMESTAMP</text>
<polygon fill="none" stroke="#000000" points="118,-184 118,-204 262,-204 262,-184 118,-184"/>
<text text-anchor="start" x="149.5083" y="-190.8" font-family="Times,serif" font-size="14.00" fill="#000000">key:</text>
<text text-anchor="start" x="173.6118" y="-190.8" font-family="Helvetica,sans-Serif" font-style="oblique" font-size="10.00" fill="#000000">VARBINARY</text>
<polygon fill="none" stroke="#000000" points="118,-164 118,-184 262,-184 262,-164 118,-164"/>
<text text-anchor="start" x="159.394" y="-170.8" font-family="Times,serif" font-size="14.00" fill="#000000">user_id:</text>
<text text-anchor="start" x="204.4976" y="-170.8" font-family="Helvetica,sans-Serif" font-style="oblique" font-size="10.00" fill="#000000">INT</text>
<polygon fill="none" stroke="#000000" points="118,-144 118,-164 262,-164 262,-144 118,-144"/>
<text text-anchor="start" x="137.9272" y="-150.8" font-family="Times,serif" font-size="14.00" fill="#000000">comment:</text>
<text text-anchor="start" x="193.9136" y="-150.8" font-family="Helvetica,sans-Serif" font-style="oblique" font-size="10.00" fill="#000000">VARCHAR</text>
<polygon fill="none" stroke="#000000" points="118,-124 118,-144 262,-144 262,-124 118,-124"/>
<text text-anchor="start" x="120.8271" y="-130.8" font-family="Times,serif" font-size="14.00" fill="#000000">authorized_key:</text>
<text text-anchor="start" x="211.0137" y="-130.8" font-family="Helvetica,sans-Serif" font-style="oblique" font-size="10.00" fill="#000000">VARCHAR</text>
</g>
<!-- users -->
<g id="node13" class="node">
<title>users</title>
<polygon fill="#dddddd" stroke="transparent" points="700,-184 700,-204 828,-204 828,-184 700,-184"/>
<polygon fill="none" stroke="#000000" points="700,-184 700,-204 828,-204 828,-184 700,-184"/>
<text text-anchor="start" x="749.6138" y="-189.8" font-family="Times,serif" font-size="14.00" fill="#000000">users</text>
<polygon fill="none" stroke="#000000" points="700,-164 700,-184 828,-184 828,-164 700,-164"/>
<text text-anchor="start" x="748.5562" y="-170.8" font-family="Times,serif" font-size="14.00" fill="#000000">id:</text>
<text text-anchor="start" x="763.3354" y="-170.8" font-family="Helvetica,sans-Serif" font-style="oblique" font-size="10.00" fill="#000000">INT</text>
<polygon fill="none" stroke="#000000" points="700,-144 700,-164 828,-164 828,-144 700,-144"/>
<text text-anchor="start" x="704.501" y="-150.8" font-family="Times,serif" font-size="14.00" fill="#000000">created_at:</text>
<text text-anchor="start" x="765.9014" y="-150.8" font-family="Helvetica,sans-Serif" font-style="oblique" font-size="10.00" fill="#000000">TIMESTAMP</text>
<polygon fill="none" stroke="#000000" points="700,-124 700,-144 828,-144 828,-124 700,-124"/>
<text text-anchor="start" x="702.5459" y="-130.8" font-family="Times,serif" font-size="14.00" fill="#000000">updated_at:</text>
<text text-anchor="start" x="767.8564" y="-130.8" font-family="Helvetica,sans-Serif" font-style="oblique" font-size="10.00" fill="#000000">TIMESTAMP</text>
<polygon fill="none" stroke="#000000" points="700,-104 700,-124 828,-124 828,-104 700,-104"/>
<text text-anchor="start" x="704.4941" y="-110.8" font-family="Times,serif" font-size="14.00" fill="#000000">deleted_at:</text>
<text text-anchor="start" x="765.9082" y="-110.8" font-family="Helvetica,sans-Serif" font-style="oblique" font-size="10.00" fill="#000000">TIMESTAMP</text>
<polygon fill="none" stroke="#000000" points="700,-84 700,-104 828,-104 828,-84 700,-84"/>
<text text-anchor="start" x="716.9463" y="-90.8" font-family="Times,serif" font-size="14.00" fill="#000000">is_admin:</text>
<text text-anchor="start" x="772.167" y="-90.8" font-family="Helvetica,sans-Serif" font-style="oblique" font-size="10.00" fill="#000000">TINYINT</text>
<polygon fill="none" stroke="#000000" points="700,-64 700,-84 828,-84 828,-64 700,-64"/>
<text text-anchor="start" x="722.4272" y="-70.8" font-family="Times,serif" font-size="14.00" fill="#000000">email:</text>
<text text-anchor="start" x="757.4136" y="-70.8" font-family="Helvetica,sans-Serif" font-style="oblique" font-size="10.00" fill="#000000">VARCHAR</text>
<polygon fill="none" stroke="#000000" points="700,-44 700,-64 828,-64 828,-44 700,-44"/>
<text text-anchor="start" x="722.8169" y="-50.8" font-family="Times,serif" font-size="14.00" fill="#000000">name:</text>
<text text-anchor="start" x="757.0239" y="-50.8" font-family="Helvetica,sans-Serif" font-style="oblique" font-size="10.00" fill="#000000">VARCHAR</text>
<polygon fill="none" stroke="#000000" points="700,-24 700,-44 828,-44 828,-24 700,-24"/>
<text text-anchor="start" x="711.9272" y="-30.8" font-family="Times,serif" font-size="14.00" fill="#000000">comment:</text>
<text text-anchor="start" x="767.9136" y="-30.8" font-family="Helvetica,sans-Serif" font-style="oblique" font-size="10.00" fill="#000000">VARCHAR</text>
<polygon fill="none" stroke="#000000" points="700,-4 700,-24 828,-24 828,-4 700,-4"/>
<text text-anchor="start" x="702.9824" y="-10.8" font-family="Times,serif" font-size="14.00" fill="#000000">invite_token:</text>
<text text-anchor="start" x="776.8584" y="-10.8" font-family="Helvetica,sans-Serif" font-style="oblique" font-size="10.00" fill="#000000">VARCHAR</text>
</g>
<!-- user_keys&#45;&gt;users -->
<g id="edge8" class="edge">
<title>user_keys:user_id&#45;&gt;users:id</title>
<path fill="none" stroke="#444444" stroke-dasharray="5,2" d="M262,-174C453.2448,-174 503.5773,-174 689.8681,-174"/>
<polygon fill="#444444" stroke="#444444" points="700,-177.5 690,-174.0001 700,-170.5 700,-177.5"/>
</g>
<!-- user_user_groups -->
<g id="node12" class="node">
<title>user_user_groups</title>
<polygon fill="#dddddd" stroke="transparent" points="137,-370 137,-390 243,-390 243,-370 137,-370"/>
<polygon fill="none" stroke="#000000" points="137,-370 137,-390 243,-390 243,-370 137,-370"/>
<text text-anchor="start" x="140.6206" y="-375.8" font-family="Times,serif" font-size="14.00" fill="#000000">user_user_groups</text>
<polygon fill="none" stroke="#000000" points="137,-350 137,-370 243,-370 243,-350 137,-350"/>
<text text-anchor="start" x="159.394" y="-356.8" font-family="Times,serif" font-size="14.00" fill="#000000">user_id:</text>
<text text-anchor="start" x="204.4976" y="-356.8" font-family="Helvetica,sans-Serif" font-style="oblique" font-size="10.00" fill="#000000">INT</text>
<polygon fill="none" stroke="#000000" points="137,-330 137,-350 243,-350 243,-330 137,-330"/>
<text text-anchor="start" x="139.563" y="-336.8" font-family="Times,serif" font-size="14.00" fill="#000000">user_group_id:</text>
<text text-anchor="start" x="224.3286" y="-336.8" font-family="Helvetica,sans-Serif" font-style="oblique" font-size="10.00" fill="#000000">INT</text>
</g>
<!-- user_user_groups&#45;&gt;user_groups -->
<g id="edge10" class="edge">
<title>user_user_groups:user_group_id&#45;&gt;user_groups:id</title>
<path fill="none" stroke="#444444" stroke-dasharray="5,2" d="M243,-340C442.64,-340 495.1088,-340 689.7185,-340"/>
<polygon fill="#444444" stroke="#444444" points="700,-343.5 690,-340.0001 700,-336.5 700,-343.5"/>
</g>
<!-- user_user_groups&#45;&gt;users -->
<g id="edge9" class="edge">
<title>user_user_groups:user_id&#45;&gt;users:id</title>
<path fill="none" stroke="#444444" stroke-dasharray="5,2" d="M243,-360C458.8631,-360 480.0858,-179.7671 689.8664,-174.1348"/>
<polygon fill="#444444" stroke="#444444" points="700.0466,-177.4997 690.0009,-174.1331 699.9534,-170.5003 700.0466,-177.4997"/>
</g>
</g>
</svg>
