<svg xmlns="http://www.w3.org/2000/svg" xmlns:xlink="http://www.w3.org/1999/xlink" width="1498pt" height="1073pt" viewBox="0 0 1498 1073"><g id="graph0" class="graph" transform="scale(1 1) rotate(0) translate(4 1069)"><title>Database Structure</title><polygon fill="#fff" stroke="transparent" points="-4 4 -4 -1069 1494 -1069 1494 4 -4 4"/><text x="745" y="-1049.8" fill="#000" font-family="Helvetica,sans-Serif" font-size="14" text-anchor="middle">ER Diagram: db</text><g id="node1" class="node"><title>acls</title><polygon fill="#ddd" stroke="transparent" points="700 -556 700 -576 828 -576 828 -556 700 -556"/><polygon fill="none" stroke="#000" points="700 -556 700 -576 828 -576 828 -556 700 -556"/><text x="753.117" y="-561.8" fill="#000" font-family="Times,serif" font-size="14" text-anchor="start">acls</text><polygon fill="none" stroke="#000" points="700 -536 700 -556 828 -556 828 -536 700 -536"/><text x="748.556" y="-542.8" fill="#000" font-family="Times,serif" font-size="14" text-anchor="start">id:</text><text x="763.335" y="-542.8" fill="#000" font-family="Helvetica,sans-Serif" font-size="10" font-style="oblique" text-anchor="start">INT</text><polygon fill="none" stroke="#000" points="700 -516 700 -536 828 -536 828 -516 700 -516"/><text x="704.501" y="-522.8" fill="#000" font-family="Times,serif" font-size="14" text-anchor="start">created_at:</text><text x="765.901" y="-522.8" fill="#000" font-family="Helvetica,sans-Serif" font-size="10" font-style="oblique" text-anchor="start">TIMESTAMP</text><polygon fill="none" stroke="#000" points="700 -496 700 -516 828 -516 828 -496 700 -496"/><text x="702.546" y="-502.8" fill="#000" font-family="Times,serif" font-size="14" text-anchor="start">updated_at:</text><text x="767.856" y="-502.8" fill="#000" font-family="Helvetica,sans-Serif" font-size="10" font-style="oblique" text-anchor="start">TIMESTAMP</text><polygon fill="none" stroke="#000" points="700 -476 700 -496 828 -496 828 -476 700 -476"/><text x="704.494" y="-482.8" fill="#000" font-family="Times,serif" font-size="14" text-anchor="start">deleted_at:</text><text x="765.908" y="-482.8" fill="#000" font-family="Helvetica,sans-Serif" font-size="10" font-style="oblique" text-anchor="start">TIMESTAMP</text><polygon fill="none" stroke="#000" points="700 -456 700 -476 828 -476 828 -456 700 -456"/><text x="703.372" y="-462.8" fill="#000" font-family="Times,serif" font-size="14" text-anchor="start">host_pattern:</text><text x="776.469" y="-462.8" fill="#000" font-family="Helvetica,sans-Serif" font-size="10" font-style="oblique" text-anchor="start">VARCHAR</text><polygon fill="none" stroke="#000" points="700 -436 700 -456 828 -456 828 -436 700 -436"/><text x="720.872" y="-442.8" fill="#000" font-family="Times,serif" font-size="14" text-anchor="start">action:</text><text x="758.969" y="-442.8" fill="#000" font-family="Helvetica,sans-Serif" font-size="10" font-style="oblique" text-anchor="start">VARCHAR</text><polygon fill="none" stroke="#000" points="700 -416 700 -436 828 -436 828 -416 700 -416"/><text x="734.949" y="-422.8" fill="#000" font-family="Times,serif" font-size="14" text-anchor="start">weight:</text><text x="776.942" y="-422.8" fill="#000" font-family="Helvetica,sans-Serif" font-size="10" font-style="oblique" text-anchor="start">INT</text><polygon fill="none" stroke="#000" points="700 -396 700 -416 828 -416 828 -396 700 -396"/><text x="711.927" y="-402.8" fill="#000" font-family="Times,serif" font-size="14" text-anchor="start">comment:</text><text x="767.914" y="-402.8" fill="#000" font-family="Helvetica,sans-Serif" font-size="10" font-style="oblique" text-anchor="start">VARCHAR</text></g><g id="node2" class="node"><title>host_group_acls</title><polygon fill="#ddd" stroke="transparent" points="137 -673 137 -693 243 -693 243 -673 137 -673"/><polygon fill="none" stroke="#000" points="137 -673 137 -693 243 -693 243 -673 137 -673"/><text x="144.117" y="-678.8" fill="#000" font-family="Times,serif" font-size="14" text-anchor="start">host_group_acls</text><polygon fill="none" stroke="#000" points="137 -653 137 -673 243 -673 243 -653 137 -653"/><text x="139.556" y="-659.8" fill="#000" font-family="Times,serif" font-size="14" text-anchor="start">host_group_id:</text><text x="224.335" y="-659.8" fill="#000" font-family="Helvetica,sans-Serif" font-size="10" font-style="oblique" text-anchor="start">INT</text><polygon fill="none" stroke="#000" points="137 -633 137 -653 243 -653 243 -633 137 -633"/><text x="162.898" y="-639.8" fill="#000" font-family="Times,serif" font-size="14" text-anchor="start">acl_id:</text><text x="200.994" y="-639.8" fill="#000" font-family="Helvetica,sans-Serif" font-size="10" font-style="oblique" text-anchor="start">INT</text></g><g id="edge1" class="edge"><title>host_group_acls:acl_id-&gt;acls:id</title><path fill="none" stroke="#444" stroke-dasharray="5 2" d="M243,-643C447.1889,-643 490.9328,-549.194 689.7944,-546.0793"/><polygon fill="#444" stroke="#444" points="700.027 -549.5 690 -546.078 699.973 -542.5 700.027 -549.5"/></g><g id="node3" class="node"><title>host_groups</title><polygon fill="#ddd" stroke="transparent" points="700 -722 700 -742 828 -742 828 -722 700 -722"/><polygon fill="none" stroke="#000" points="700 -722 700 -742 828 -742 828 -722 700 -722"/><text x="729.776" y="-727.8" fill="#000" font-family="Times,serif" font-size="14" text-anchor="start">host_groups</text><polygon fill="none" stroke="#000" points="700 -702 700 -722 828 -722 828 -702 700 -702"/><text x="748.556" y="-708.8" fill="#000" font-family="Times,serif" font-size="14" text-anchor="start">id:</text><text x="763.335" y="-708.8" fill="#000" font-family="Helvetica,sans-Serif" font-size="10" font-style="oblique" text-anchor="start">INT</text><polygon fill="none" stroke="#000" points="700 -682 700 -702 828 -702 828 -682 700 -682"/><text x="704.501" y="-688.8" fill="#000" font-family="Times,serif" font-size="14" text-anchor="start">created_at:</text><text x="765.901" y="-688.8" fill="#000" font-family="Helvetica,sans-Serif" font-size="10" font-style="oblique" text-anchor="start">TIMESTAMP</text><polygon fill="none" stroke="#000" points="700 -662 700 -682 828 -682 828 -662 700 -662"/><text x="702.546" y="-668.8" fill="#000" font-family="Times,serif" font-size="14" text-anchor="start">updated_at:</text><text x="767.856" y="-668.8" fill="#000" font-family="Helvetica,sans-Serif" font-size="10" font-style="oblique" text-anchor="start">TIMESTAMP</text><polygon fill="none" stroke="#000" points="700 -642 700 -662 828 -662 828 -642 700 -642"/><text x="704.494" y="-648.8" fill="#000" font-family="Times,serif" font-size="14" text-anchor="start">deleted_at:</text><text x="765.908" y="-648.8" fill="#000" font-family="Helvetica,sans-Serif" font-size="10" font-style="oblique" text-anchor="start">TIMESTAMP</text><polygon fill="none" stroke="#000" points="700 -622 700 -642 828 -642 828 -622 700 -622"/><text x="722.817" y="-628.8" fill="#000" font-family="Times,serif" font-size="14" text-anchor="start">name:</text><text x="757.024" y="-628.8" fill="#000" font-family="Helvetica,sans-Serif" font-size="10" font-style="oblique" text-anchor="start">VARCHAR</text><polygon fill="none" stroke="#000" points="700 -602 700 -622 828 -622 828 -602 700 -602"/><text x="711.927" y="-608.8" fill="#000" font-family="Times,serif" font-size="14" text-anchor="start">comment:</text><text x="767.914" y="-608.8" fill="#000" font-family="Helvetica,sans-Serif" font-size="10" font-style="oblique" text-anchor="start">VARCHAR</text></g><g id="edge2" class="edge"><title>host_group_acls:host_group_id-&gt;host_groups:id</title><path fill="none" stroke="#444" stroke-dasharray="5 2" d="M243,-663C443.884,-663 494.0731,-710.3866 689.9535,-711.9599"/><polygon fill="#444" stroke="#444" points="699.986 -715.5 690 -711.96 700.014 -708.5 699.986 -715.5"/></g><g id="node4" class="node"><title>host_host_groups</title><polygon fill="#ddd" stroke="transparent" points="137 -787 137 -807 243 -807 243 -787 137 -787"/><polygon fill="none" stroke="#000" points="137 -787 137 -807 243 -807 243 -787 137 -787"/><text x="140.607" y="-792.8" fill="#000" font-family="Times,serif" font-size="14" text-anchor="start">host_host_groups</text><polygon fill="none" stroke="#000" points="137 -767 137 -787 243 -787 243 -767 137 -767"/><text x="159.387" y="-773.8" fill="#000" font-family="Times,serif" font-size="14" text-anchor="start">host_id:</text><text x="204.504" y="-773.8" fill="#000" font-family="Helvetica,sans-Serif" font-size="10" font-style="oblique" text-anchor="start">INT</text><polygon fill="none" stroke="#000" points="137 -747 137 -767 243 -767 243 -747 137 -747"/><text x="139.556" y="-753.8" fill="#000" font-family="Times,serif" font-size="14" text-anchor="start">host_group_id:</text><text x="224.335" y="-753.8" fill="#000" font-family="Helvetica,sans-Serif" font-size="10" font-style="oblique" text-anchor="start">INT</text></g><g id="edge4" class="edge"><title>host_host_groups:host_group_id-&gt;host_groups:id</title><path fill="none" stroke="#444" stroke-dasharray="5 2" d="M243,-757C443.7051,-757 494.243,-713.4817 689.9622,-712.0368"/><polygon fill="#444" stroke="#444" points="700.013 -715.5 690 -712.037 699.987 -708.5 700.013 -715.5"/></g><g id="node5" class="node"><title>hosts</title><polygon fill="#ddd" stroke="transparent" points="700 -1008 700 -1028 828 -1028 828 -1008 700 -1008"/><polygon fill="none" stroke="#000" points="700 -1008 700 -1028 828 -1028 828 -1008 700 -1008"/><text x="749.607" y="-1013.8" fill="#000" font-family="Times,serif" font-size="14" text-anchor="start">hosts</text><polygon fill="none" stroke="#000" points="700 -988 700 -1008 828 -1008 828 -988 700 -988"/><text x="748.556" y="-994.8" fill="#000" font-family="Times,serif" font-size="14" text-anchor="start">id:</text><text x="763.335" y="-994.8" fill="#000" font-family="Helvetica,sans-Serif" font-size="10" font-style="oblique" text-anchor="start">INT</text><polygon fill="none" stroke="#000" points="700 -968 700 -988 828 -988 828 -968 700 -968"/><text x="704.501" y="-974.8" fill="#000" font-family="Times,serif" font-size="14" text-anchor="start">created_at:</text><text x="765.901" y="-974.8" fill="#000" font-family="Helvetica,sans-Serif" font-size="10" font-style="oblique" text-anchor="start">TIMESTAMP</text><polygon fill="none" stroke="#000" points="700 -948 700 -968 828 -968 828 -948 700 -948"/><text x="702.546" y="-954.8" fill="#000" font-family="Times,serif" font-size="14" text-anchor="start">updated_at:</text><text x="767.856" y="-954.8" fill="#000" font-family="Helvetica,sans-Serif" font-size="10" font-style="oblique" text-anchor="start">TIMESTAMP</text><polygon fill="none" stroke="#000" points="700 -928 700 -948 828 -948 828 -928 700 -928"/><text x="704.494" y="-934.8" fill="#000" font-family="Times,serif" font-size="14" text-anchor="start">deleted_at:</text><text x="765.908" y="-934.8" fill="#000" font-family="Helvetica,sans-Serif" font-size="10" font-style="oblique" text-anchor="start">TIMESTAMP</text><polygon fill="none" stroke="#000" points="700 -908 700 -928 828 -928 828 -908 700 -908"/><text x="722.817" y="-914.8" fill="#000" font-family="Times,serif" font-size="14" text-anchor="start">name:</text><text x="757.024" y="-914.8" fill="#000" font-family="Helvetica,sans-Serif" font-size="10" font-style="oblique" text-anchor="start">VARCHAR</text><polygon fill="none" stroke="#000" points="700 -888 700 -908 828 -908 828 -888 700 -888"/><text x="725.538" y="-894.8" fill="#000" font-family="Times,serif" font-size="14" text-anchor="start">addr:</text><text x="754.303" y="-894.8" fill="#000" font-family="Helvetica,sans-Serif" font-size="10" font-style="oblique" text-anchor="start">VARCHAR</text><polygon fill="none" stroke="#000" points="700 -868 700 -888 828 -888 828 -868 700 -868"/><text x="726.313" y="-874.8" fill="#000" font-family="Times,serif" font-size="14" text-anchor="start">user:</text><text x="753.527" y="-874.8" fill="#000" font-family="Helvetica,sans-Serif" font-size="10" font-style="oblique" text-anchor="start">VARCHAR</text><polygon fill="none" stroke="#000" points="700 -848 700 -868 828 -868 828 -848 700 -848"/><text x="711.534" y="-854.8" fill="#000" font-family="Times,serif" font-size="14" text-anchor="start">password:</text><text x="768.307" y="-854.8" fill="#000" font-family="Helvetica,sans-Serif" font-size="10" font-style="oblique" text-anchor="start">VARCHAR</text><polygon fill="none" stroke="#000" points="700 -828 700 -848 828 -848 828 -828 700 -828"/><text x="722.501" y="-834.8" fill="#000" font-family="Times,serif" font-size="14" text-anchor="start">ssh_key_id:</text><text x="789.391" y="-834.8" fill="#000" font-family="Helvetica,sans-Serif" font-size="10" font-style="oblique" text-anchor="start">INT</text><polygon fill="none" stroke="#000" points="700 -808 700 -828 828 -828 828 -808 700 -808"/><text x="708.424" y="-814.8" fill="#000" font-family="Times,serif" font-size="14" text-anchor="start">fingerprint:</text><text x="771.417" y="-814.8" fill="#000" font-family="Helvetica,sans-Serif" font-size="10" font-style="oblique" text-anchor="start">VARCHAR</text><polygon fill="none" stroke="#000" points="700 -788 700 -808 828 -808 828 -788 700 -788"/><text x="711.927" y="-794.8" fill="#000" font-family="Times,serif" font-size="14" text-anchor="start">comment:</text><text x="767.914" y="-794.8" fill="#000" font-family="Helvetica,sans-Serif" font-size="10" font-style="oblique" text-anchor="start">VARCHAR</text><polygon fill="none" stroke="#000" points="700 -768 700 -788 828 -788 828 -768 700 -768"/><text x="708.339" y="-774.8" fill="#000" font-family="Times,serif" font-size="14" text-anchor="start">host_key:</text><text x="762.781" y="-774.8" fill="#000" font-family="Helvetica,sans-Serif" font-size="10" font-style="oblique" text-anchor="start">VARBINARY</text></g><g id="edge3" class="edge"><title>host_host_groups:host_id-&gt;hosts:id</title><path fill="none" stroke="#444" stroke-dasharray="5 2" d="M243,-777C465.1991,-777 474.1608,-991.3602 689.9044,-997.8496"/><polygon fill="#444" stroke="#444" points="699.948 -1001.5 690.001 -997.851 700.052 -994.5 699.948 -1001.5"/></g><g id="node8" class="node"><title>ssh_keys</title><polygon fill="#ddd" stroke="transparent" points="1255 -848 1255 -868 1383 -868 1383 -848 1255 -848"/><polygon fill="none" stroke="#000" points="1255 -848 1255 -868 1383 -868 1383 -848 1255 -848"/><text x="1293.721" y="-853.8" fill="#000" font-family="Times,serif" font-size="14" text-anchor="start">ssh_keys</text><polygon fill="none" stroke="#000" points="1255 -828 1255 -848 1383 -848 1383 -828 1255 -828"/><text x="1303.556" y="-834.8" fill="#000" font-family="Times,serif" font-size="14" text-anchor="start">id:</text><text x="1318.335" y="-834.8" fill="#000" font-family="Helvetica,sans-Serif" font-size="10" font-style="oblique" text-anchor="start">INT</text><polygon fill="none" stroke="#000" points="1255 -808 1255 -828 1383 -828 1383 -808 1255 -808"/><text x="1259.501" y="-814.8" fill="#000" font-family="Times,serif" font-size="14" text-anchor="start">created_at:</text><text x="1320.901" y="-814.8" fill="#000" font-family="Helvetica,sans-Serif" font-size="10" font-style="oblique" text-anchor="start">TIMESTAMP</text><polygon fill="none" stroke="#000" points="1255 -788 1255 -808 1383 -808 1383 -788 1255 -788"/><text x="1257.546" y="-794.8" fill="#000" font-family="Times,serif" font-size="14" text-anchor="start">updated_at:</text><text x="1322.856" y="-794.8" fill="#000" font-family="Helvetica,sans-Serif" font-size="10" font-style="oblique" text-anchor="start">TIMESTAMP</text><polygon fill="none" stroke="#000" points="1255 -768 1255 -788 1383 -788 1383 -768 1255 -768"/><text x="1259.494" y="-774.8" fill="#000" font-family="Times,serif" font-size="14" text-anchor="start">deleted_at:</text><text x="1320.908" y="-774.8" fill="#000" font-family="Helvetica,sans-Serif" font-size="10" font-style="oblique" text-anchor="start">TIMESTAMP</text><polygon fill="none" stroke="#000" points="1255 -748 1255 -768 1383 -768 1383 -748 1255 -748"/><text x="1277.817" y="-754.8" fill="#000" font-family="Times,serif" font-size="14" text-anchor="start">name:</text><text x="1312.024" y="-754.8" fill="#000" font-family="Helvetica,sans-Serif" font-size="10" font-style="oblique" text-anchor="start">VARCHAR</text><polygon fill="none" stroke="#000" points="1255 -728 1255 -748 1383 -748 1383 -728 1255 -728"/><text x="1280.924" y="-734.8" fill="#000" font-family="Times,serif" font-size="14" text-anchor="start">type:</text><text x="1308.917" y="-734.8" fill="#000" font-family="Helvetica,sans-Serif" font-size="10" font-style="oblique" text-anchor="start">VARCHAR</text><polygon fill="none" stroke="#000" points="1255 -708 1255 -728 1383 -728 1383 -708 1255 -708"/><text x="1291.504" y="-714.8" fill="#000" font-family="Times,serif" font-size="14" text-anchor="start">length:</text><text x="1330.387" y="-714.8" fill="#000" font-family="Helvetica,sans-Serif" font-size="10" font-style="oblique" text-anchor="start">INT</text><polygon fill="none" stroke="#000" points="1255 -688 1255 -708 1383 -708 1383 -688 1255 -688"/><text x="1263.424" y="-694.8" fill="#000" font-family="Times,serif" font-size="14" text-anchor="start">fingerprint:</text><text x="1326.417" y="-694.8" fill="#000" font-family="Helvetica,sans-Serif" font-size="10" font-style="oblique" text-anchor="start">VARCHAR</text><polygon fill="none" stroke="#000" points="1255 -668 1255 -688 1383 -688 1383 -668 1255 -668"/><text x="1268.093" y="-674.8" fill="#000" font-family="Times,serif" font-size="14" text-anchor="start">priv_key:</text><text x="1321.748" y="-674.8" fill="#000" font-family="Helvetica,sans-Serif" font-size="10" font-style="oblique" text-anchor="start">VARCHAR</text><polygon fill="none" stroke="#000" points="1255 -648 1255 -668 1383 -668 1383 -648 1255 -648"/><text x="1268.869" y="-654.8" fill="#000" font-family="Times,serif" font-size="14" text-anchor="start">pub_key:</text><text x="1320.972" y="-654.8" fill="#000" font-family="Helvetica,sans-Serif" font-size="10" font-style="oblique" text-anchor="start">VARCHAR</text><polygon fill="none" stroke="#000" points="1255 -628 1255 -648 1383 -648 1383 -628 1255 -628"/><text x="1266.927" y="-634.8" fill="#000" font-family="Times,serif" font-size="14" text-anchor="start">comment:</text><text x="1322.914" y="-634.8" fill="#000" font-family="Helvetica,sans-Serif" font-size="10" font-style="oblique" text-anchor="start">VARCHAR</text></g><g id="edge5" class="edge"><title>hosts:ssh_key_id-&gt;ssh_keys:id</title><path fill="none" stroke="#444" stroke-dasharray="5 2" d="M828,-838C1014.3492,-838 1063.4615,-838 1244.8519,-838"/><polygon fill="#444" stroke="#444" points="1255 -841.5 1245 -838 1255 -834.5 1255 -841.5"/></g><g id="node6" class="node"><title>migrations</title><polygon fill="#ddd" stroke="transparent" points="156 -853 156 -873 224 -873 224 -853 156 -853"/><polygon fill="none" stroke="#000" points="156 -853 156 -873 224 -873 224 -853 156 -853"/><text x="160.059" y="-858.8" fill="#000" font-family="Times,serif" font-size="14" text-anchor="start">migrations</text><polygon fill="none" stroke="#000" points="156 -833 156 -853 224 -853 224 -833 156 -833"/><text x="158.531" y="-839.8" fill="#000" font-family="Times,serif" font-size="14" text-anchor="start">id:</text><text x="173.31" y="-839.8" fill="#000" font-family="Helvetica,sans-Serif" font-size="10" font-style="oblique" text-anchor="start">VARCHAR</text></g><g id="node7" class="node"><title>settings</title><polygon fill="#ddd" stroke="transparent" points="126 -1019 126 -1039 254 -1039 254 -1019 126 -1019"/><polygon fill="none" stroke="#000" points="126 -1019 126 -1039 254 -1039 254 -1019 126 -1019"/><text x="168.61" y="-1024.8" fill="#000" font-family="Times,serif" font-size="14" text-anchor="start">settings</text><polygon fill="none" stroke="#000" points="126 -999 126 -1019 254 -1019 254 -999 126 -999"/><text x="174.556" y="-1005.8" fill="#000" font-family="Times,serif" font-size="14" text-anchor="start">id:</text><text x="189.335" y="-1005.8" fill="#000" font-family="Helvetica,sans-Serif" font-size="10" font-style="oblique" text-anchor="start">INT</text><polygon fill="none" stroke="#000" points="126 -979 126 -999 254 -999 254 -979 126 -979"/><text x="130.501" y="-985.8" fill="#000" font-family="Times,serif" font-size="14" text-anchor="start">created_at:</text><text x="191.901" y="-985.8" fill="#000" font-family="Helvetica,sans-Serif" font-size="10" font-style="oblique" text-anchor="start">TIMESTAMP</text><polygon fill="none" stroke="#000" points="126 -959 126 -979 254 -979 254 -959 126 -959"/><text x="128.546" y="-965.8" fill="#000" font-family="Times,serif" font-size="14" text-anchor="start">updated_at:</text><text x="193.856" y="-965.8" fill="#000" font-family="Helvetica,sans-Serif" font-size="10" font-style="oblique" text-anchor="start">TIMESTAMP</text><polygon fill="none" stroke="#000" points="126 -939 126 -959 254 -959 254 -939 126 -939"/><text x="130.494" y="-945.8" fill="#000" font-family="Times,serif" font-size="14" text-anchor="start">deleted_at:</text><text x="191.908" y="-945.8" fill="#000" font-family="Helvetica,sans-Serif" font-size="10" font-style="oblique" text-anchor="start">TIMESTAMP</text><polygon fill="none" stroke="#000" points="126 -919 126 -939 254 -939 254 -919 126 -919"/><text x="148.817" y="-925.8" fill="#000" font-family="Times,serif" font-size="14" text-anchor="start">name:</text><text x="183.024" y="-925.8" fill="#000" font-family="Helvetica,sans-Serif" font-size="10" font-style="oblique" text-anchor="start">VARCHAR</text><polygon fill="none" stroke="#000" points="126 -899 126 -919 254 -919 254 -899 126 -899"/><text x="148.817" y="-905.8" fill="#000" font-family="Times,serif" font-size="14" text-anchor="start">value:</text><text x="183.024" y="-905.8" fill="#000" font-family="Helvetica,sans-Serif" font-size="10" font-style="oblique" text-anchor="start">VARCHAR</text></g><g id="node9" class="node"><title>user_group_acls</title><polygon fill="#ddd" stroke="transparent" points="137 -530 137 -550 243 -550 243 -530 137 -530"/><polygon fill="none" stroke="#000" points="137 -530 137 -550 243 -550 243 -530 137 -530"/><text x="144.124" y="-535.8" fill="#000" font-family="Times,serif" font-size="14" text-anchor="start">user_group_acls</text><polygon fill="none" stroke="#000" points="137 -510 137 -530 243 -530 243 -510 137 -510"/><text x="139.563" y="-516.8" fill="#000" font-family="Times,serif" font-size="14" text-anchor="start">user_group_id:</text><text x="224.329" y="-516.8" fill="#000" font-family="Helvetica,sans-Serif" font-size="10" font-style="oblique" text-anchor="start">INT</text><polygon fill="none" stroke="#000" points="137 -490 137 -510 243 -510 243 -490 137 -490"/><text x="162.898" y="-496.8" fill="#000" font-family="Times,serif" font-size="14" text-anchor="start">acl_id:</text><text x="200.994" y="-496.8" fill="#000" font-family="Helvetica,sans-Serif" font-size="10" font-style="oblique" text-anchor="start">INT</text></g><g id="edge6" class="edge"><title>user_group_acls:acl_id-&gt;acls:id</title><path fill="none" stroke="#444" stroke-dasharray="5 2" d="M243,-500C443.7485,-500 494.2019,-544.4853 689.9601,-545.9624"/><polygon fill="#444" stroke="#444" points="699.987 -549.5 690 -545.962 700.013 -542.5 699.987 -549.5"/></g><g id="node10" class="node"><title>user_groups</title><polygon fill="#ddd" stroke="transparent" points="700 -350 700 -370 828 -370 828 -350 700 -350"/><polygon fill="none" stroke="#000" points="700 -350 700 -370 828 -370 828 -350 700 -350"/><text x="729.783" y="-355.8" fill="#000" font-family="Times,serif" font-size="14" text-anchor="start">user_groups</text><polygon fill="none" stroke="#000" points="700 -330 700 -350 828 -350 828 -330 700 -330"/><text x="748.556" y="-336.8" fill="#000" font-family="Times,serif" font-size="14" text-anchor="start">id:</text><text x="763.335" y="-336.8" fill="#000" font-family="Helvetica,sans-Serif" font-size="10" font-style="oblique" text-anchor="start">INT</text><polygon fill="none" stroke="#000" points="700 -310 700 -330 828 -330 828 -310 700 -310"/><text x="704.501" y="-316.8" fill="#000" font-family="Times,serif" font-size="14" text-anchor="start">created_at:</text><text x="765.901" y="-316.8" fill="#000" font-family="Helvetica,sans-Serif" font-size="10" font-style="oblique" text-anchor="start">TIMESTAMP</text><polygon fill="none" stroke="#000" points="700 -290 700 -310 828 -310 828 -290 700 -290"/><text x="702.546" y="-296.8" fill="#000" font-family="Times,serif" font-size="14" text-anchor="start">updated_at:</text><text x="767.856" y="-296.8" fill="#000" font-family="Helvetica,sans-Serif" font-size="10" font-style="oblique" text-anchor="start">TIMESTAMP</text><polygon fill="none" stroke="#000" points="700 -270 700 -290 828 -290 828 -270 700 -270"/><text x="704.494" y="-276.8" fill="#000" font-family="Times,serif" font-size="14" text-anchor="start">deleted_at:</text><text x="765.908" y="-276.8" fill="#000" font-family="Helvetica,sans-Serif" font-size="10" font-style="oblique" text-anchor="start">TIMESTAMP</text><polygon fill="none" stroke="#000" points="700 -250 700 -270 828 -270 828 -250 700 -250"/><text x="722.817" y="-256.8" fill="#000" font-family="Times,serif" font-size="14" text-anchor="start">name:</text><text x="757.024" y="-256.8" fill="#000" font-family="Helvetica,sans-Serif" font-size="10" font-style="oblique" text-anchor="start">VARCHAR</text><polygon fill="none" stroke="#000" points="700 -230 700 -250 828 -250 828 -230 700 -230"/><text x="711.927" y="-236.8" fill="#000" font-family="Times,serif" font-size="14" text-anchor="start">comment:</text><text x="767.914" y="-236.8" fill="#000" font-family="Helvetica,sans-Serif" font-size="10" font-style="oblique" text-anchor="start">VARCHAR</text></g><g id="edge7" class="edge"><title>user_group_acls:user_group_id-&gt;user_groups:id</title><path fill="none" stroke="#444" stroke-dasharray="5 2" d="M243,-520C457.8873,-520 481.0158,-345.5811 689.9107,-340.1305"/><polygon fill="#444" stroke="#444" points="700.045 -343.5 690.001 -340.129 699.955 -336.5 700.045 -343.5"/></g><g id="node11" class="node"><title>user_keys</title><polygon fill="#ddd" stroke="transparent" points="118 -284 118 -304 262 -304 262 -284 118 -284"/><polygon fill="none" stroke="#000" points="118 -284 118 -304 262 -304 262 -284 118 -284"/><text x="162.007" y="-289.8" fill="#000" font-family="Times,serif" font-size="14" text-anchor="start">user_keys</text><polygon fill="none" stroke="#000" points="118 -264 118 -284 262 -284 262 -264 118 -264"/><text x="174.556" y="-270.8" fill="#000" font-family="Times,serif" font-size="14" text-anchor="start">id:</text><text x="189.335" y="-270.8" fill="#000" font-family="Helvetica,sans-Serif" font-size="10" font-style="oblique" text-anchor="start">INT</text><polygon fill="none" stroke="#000" points="118 -244 118 -264 262 -264 262 -244 118 -244"/><text x="130.501" y="-250.8" fill="#000" font-family="Times,serif" font-size="14" text-anchor="start">created_at:</text><text x="191.901" y="-250.8" fill="#000" font-family="Helvetica,sans-Serif" font-size="10" font-style="oblique" text-anchor="start">TIMESTAMP</text><polygon fill="none" stroke="#000" points="118 -224 118 -244 262 -244 262 -224 118 -224"/><text x="128.546" y="-230.8" fill="#000" font-family="Times,serif" font-size="14" text-anchor="start">updated_at:</text><text x="193.856" y="-230.8" fill="#000" font-family="Helvetica,sans-Serif" font-size="10" font-style="oblique" text-anchor="start">TIMESTAMP</text><polygon fill="none" stroke="#000" points="118 -204 118 -224 262 -224 262 -204 118 -204"/><text x="130.494" y="-210.8" fill="#000" font-family="Times,serif" font-size="14" text-anchor="start">deleted_at:</text><text x="191.908" y="-210.8" fill="#000" font-family="Helvetica,sans-Serif" font-size="10" font-style="oblique" text-anchor="start">TIMESTAMP</text><polygon fill="none" stroke="#000" points="118 -184 118 -204 262 -204 262 -184 118 -184"/><text x="149.508" y="-190.8" fill="#000" font-family="Times,serif" font-size="14" text-anchor="start">key:</text><text x="173.612" y="-190.8" fill="#000" font-family="Helvetica,sans-Serif" font-size="10" font-style="oblique" text-anchor="start">VARBINARY</text><polygon fill="none" stroke="#000" points="118 -164 118 -184 262 -184 262 -164 118 -164"/><text x="159.394" y="-170.8" fill="#000" font-family="Times,serif" font-size="14" text-anchor="start">user_id:</text><text x="204.498" y="-170.8" fill="#000" font-family="Helvetica,sans-Serif" font-size="10" font-style="oblique" text-anchor="start">INT</text><polygon fill="none" stroke="#000" points="118 -144 118 -164 262 -164 262 -144 118 -144"/><text x="137.927" y="-150.8" fill="#000" font-family="Times,serif" font-size="14" text-anchor="start">comment:</text><text x="193.914" y="-150.8" fill="#000" font-family="Helvetica,sans-Serif" font-size="10" font-style="oblique" text-anchor="start">VARCHAR</text><polygon fill="none" stroke="#000" points="118 -124 118 -144 262 -144 262 -124 118 -124"/><text x="120.827" y="-130.8" fill="#000" font-family="Times,serif" font-size="14" text-anchor="start">authorized_key:</text><text x="211.014" y="-130.8" fill="#000" font-family="Helvetica,sans-Serif" font-size="10" font-style="oblique" text-anchor="start">VARCHAR</text></g><g id="node13" class="node"><title>users</title><polygon fill="#ddd" stroke="transparent" points="700 -184 700 -204 828 -204 828 -184 700 -184"/><polygon fill="none" stroke="#000" points="700 -184 700 -204 828 -204 828 -184 700 -184"/><text x="749.614" y="-189.8" fill="#000" font-family="Times,serif" font-size="14" text-anchor="start">users</text><polygon fill="none" stroke="#000" points="700 -164 700 -184 828 -184 828 -164 700 -164"/><text x="748.556" y="-170.8" fill="#000" font-family="Times,serif" font-size="14" text-anchor="start">id:</text><text x="763.335" y="-170.8" fill="#000" font-family="Helvetica,sans-Serif" font-size="10" font-style="oblique" text-anchor="start">INT</text><polygon fill="none" stroke="#000" points="700 -144 700 -164 828 -164 828 -144 700 -144"/><text x="704.501" y="-150.8" fill="#000" font-family="Times,serif" font-size="14" text-anchor="start">created_at:</text><text x="765.901" y="-150.8" fill="#000" font-family="Helvetica,sans-Serif" font-size="10" font-style="oblique" text-anchor="start">TIMESTAMP</text><polygon fill="none" stroke="#000" points="700 -124 700 -144 828 -144 828 -124 700 -124"/><text x="702.546" y="-130.8" fill="#000" font-family="Times,serif" font-size="14" text-anchor="start">updated_at:</text><text x="767.856" y="-130.8" fill="#000" font-family="Helvetica,sans-Serif" font-size="10" font-style="oblique" text-anchor="start">TIMESTAMP</text><polygon fill="none" stroke="#000" points="700 -104 700 -124 828 -124 828 -104 700 -104"/><text x="704.494" y="-110.8" fill="#000" font-family="Times,serif" font-size="14" text-anchor="start">deleted_at:</text><text x="765.908" y="-110.8" fill="#000" font-family="Helvetica,sans-Serif" font-size="10" font-style="oblique" text-anchor="start">TIMESTAMP</text><polygon fill="none" stroke="#000" points="700 -84 700 -104 828 -104 828 -84 700 -84"/><text x="716.946" y="-90.8" fill="#000" font-family="Times,serif" font-size="14" text-anchor="start">is_admin:</text><text x="772.167" y="-90.8" fill="#000" font-family="Helvetica,sans-Serif" font-size="10" font-style="oblique" text-anchor="start">TINYINT</text><polygon fill="none" stroke="#000" points="700 -64 700 -84 828 -84 828 -64 700 -64"/><text x="722.427" y="-70.8" fill="#000" font-family="Times,serif" font-size="14" text-anchor="start">email:</text><text x="757.414" y="-70.8" fill="#000" font-family="Helvetica,sans-Serif" font-size="10" font-style="oblique" text-anchor="start">VARCHAR</text><polygon fill="none" stroke="#000" points="700 -44 700 -64 828 -64 828 -44 700 -44"/><text x="722.817" y="-50.8" fill="#000" font-family="Times,serif" font-size="14" text-anchor="start">name:</text><text x="757.024" y="-50.8" fill="#000" font-family="Helvetica,sans-Serif" font-size="10" font-style="oblique" text-anchor="start">VARCHAR</text><polygon fill="none" stroke="#000" points="700 -24 700 -44 828 -44 828 -24 700 -24"/><text x="711.927" y="-30.8" fill="#000" font-family="Times,serif" font-size="14" text-anchor="start">comment:</text><text x="767.914" y="-30.8" fill="#000" font-family="Helvetica,sans-Serif" font-size="10" font-style="oblique" text-anchor="start">VARCHAR</text><polygon fill="none" stroke="#000" points="700 -4 700 -24 828 -24 828 -4 700 -4"/><text x="702.982" y="-10.8" fill="#000" font-family="Times,serif" font-size="14" text-anchor="start">invite_token:</text><text x="776.858" y="-10.8" fill="#000" font-family="Helvetica,sans-Serif" font-size="10" font-style="oblique" text-anchor="start">VARCHAR</text></g><g id="edge8" class="edge"><title>user_keys:user_id-&gt;users:id</title><path fill="none" stroke="#444" stroke-dasharray="5 2" d="M262,-174C453.2448,-174 503.5773,-174 689.8681,-174"/><polygon fill="#444" stroke="#444" points="700 -177.5 690 -174 700 -170.5 700 -177.5"/></g><g id="node12" class="node"><title>user_user_groups</title><polygon fill="#ddd" stroke="transparent" points="137 -370 137 -390 243 -390 243 -370 137 -370"/><polygon fill="none" stroke="#000" points="137 -370 137 -390 243 -390 243 -370 137 -370"/><text x="140.621" y="-375.8" fill="#000" font-family="Times,serif" font-size="14" text-anchor="start">user_user_groups</text><polygon fill="none" stroke="#000" points="137 -350 137 -370 243 -370 243 -350 137 -350"/><text x="159.394" y="-356.8" fill="#000" font-family="Times,serif" font-size="14" text-anchor="start">user_id:</text><text x="204.498" y="-356.8" fill="#000" font-family="Helvetica,sans-Serif" font-size="10" font-style="oblique" text-anchor="start">INT</text><polygon fill="none" stroke="#000" points="137 -330 137 -350 243 -350 243 -330 137 -330"/><text x="139.563" y="-336.8" fill="#000" font-family="Times,serif" font-size="14" text-anchor="start">user_group_id:</text><text x="224.329" y="-336.8" fill="#000" font-family="Helvetica,sans-Serif" font-size="10" font-style="oblique" text-anchor="start">INT</text></g><g id="edge10" class="edge"><title>user_user_groups:user_group_id-&gt;user_groups:id</title><path fill="none" stroke="#444" stroke-dasharray="5 2" d="M243,-340C442.64,-340 495.1088,-340 689.7185,-340"/><polygon fill="#444" stroke="#444" points="700 -343.5 690 -340 700 -336.5 700 -343.5"/></g><g id="edge9" class="edge"><title>user_user_groups:user_id-&gt;users:id</title><path fill="none" stroke="#444" stroke-dasharray="5 2" d="M243,-360C458.8631,-360 480.0858,-179.7671 689.8664,-174.1348"/><polygon fill="#444" stroke="#444" points="700.047 -177.5 690.001 -174.133 699.953 -170.5 700.047 -177.5"/></g></g></svg>